<svg  xmlns="http://www.w3.org/2000/svg" viewBox="0 0 895 190" fill='currentColor'><path d="M875,97.47c-42.15,9.67-86,18.69-129.26,7.46-18.31-4.75-35.26-12.93-47.95-24.62-10.74-9.89-18.2-21.8-26.16-33.16C656,24.86,635.11,2.63,599.6,4c-40.28,1.61-67.44,28.21-84,55.06-17.18,27.87-29.84,60.42-71,70.42-26,6.3-53.68,1.93-76.48-9.14,10.82-7.06,20.71-15.23,25.69-25.39,7.37-15,1.22-30.41-16.34-38.43C361,49,339.63,44.15,326,57.94c-21.72,22,2.12,47.54,27.43,62.93A324,324,0,0,1,304.92,145c-80.37,32.16-172.14,36.67-260.44,35.32-11.71-.17-23.41-.47-35.11-.75-4.6-.1-4.56,5.52,0,5.71,95.36,3.84,194.47,2.62,283.46-28.44a348.39,348.39,0,0,0,57.9-26c3.25-1.86,6.6-3.78,10-5.78a121.74,121.74,0,0,0,12.46,5.77c36.24,14.26,82.43,11.68,111.24-12.52,29.08-24.43,35-60.62,63.51-85.57,14.73-12.89,35.22-22.28,57.59-21.43,19.12.73,34.14,10.14,45,22.14,10.29,11.4,17.69,24.25,26.84,36.21,9.78,12.78,21.83,23.83,37.78,31.87,37.87,19.08,84.71,19.06,127,11.11a313.94,313.94,0,0,0,35.18-8.77C882,102.29,880.21,96.29,875,97.47ZM338.44,99.32c-10.94-11.27-18.53-30.87-.39-40.64,9.55-5.15,21.28-1.32,30.5,2.41s17,8.51,18.8,17.12c3.29,16-12.42,28.76-26.78,38.18A102,102,0,0,1,338.44,99.32Z"/><path d="M885.55,94c-8.52.83-18.41-7.71-25.37-12-4.5-2.77-7.23,5-3.14,6.35a139.89,139.89,0,0,0,16.31,9.52c4.34,2.18,9.18,4.28,13.62,1.35C889.08,97.83,888.53,93.72,885.55,94Z"/><path d="M881.05,96.15c-3,3.7-4,8-5.15,12.58-.62,2.44-1.24,4.87-1.87,7.31-.39,1.52-.79,3-1.17,4.56-.12.52-.91,2.43-.64,2.47a3.58,3.58,0,0,0-.49,2.74c.25,1.71,2.28,2.36,3.71,2.1,3.94-.71,4.12-7.11,4.88-10.14,1.49-6,2.43-12.62,5.23-18.15C886.93,96.89,883.22,93.48,881.05,96.15Z"/><path d="M457.23,40.85A12.39,12.39,0,0,0,443,38.45a2.52,2.52,0,0,0-.55,4,8.21,8.21,0,0,0-.54,9.13c2.7,4.72,9.15,5.45,13.68,3.16C461.46,51.85,461.65,45.18,457.23,40.85Zm-3.91,8.61c-1.63,1.07-4.41,1.34-5.92-.09a3,3,0,0,1,.47-4.72A2.35,2.35,0,0,0,449,43.06a7.69,7.69,0,0,1,2.46.79C453.53,44.92,456,47.7,453.32,49.46Z"/><path d="M788.43,43.78c-1.41-4.59-4.46-9-7.13-12.93-1.85-2.75-6.28-.23-4.48,2.62,2.51,4,4.26,8.41,6.76,12.36C785.14,48.29,789.35,46.76,788.43,43.78Z"/><path d="M802.5,37.6c-3.74,2-7.53,3.95-11.22,6-2.63,1.45-.83,5.46,2,4.76A34.68,34.68,0,0,0,805.88,42C808.46,40,805.18,36.18,802.5,37.6Z"/><path d="M800.37,62.18c-2.31-3.26-5-6.29-7.65-9.33-1.86-2.19-5.8.78-4,3.11,2.4,3.18,4.75,6.54,7.44,9.49C798.16,67.68,802.15,64.71,800.37,62.18Z"/><path d="M779.93,50c-4.8,1.24-11.84,4.61-13.07,10-.41,1.82,1.32,4.29,3.41,3.41,2.32-1,3.78-2.69,5.76-4.15a34.53,34.53,0,0,1,6.27-3.6C785.55,54.17,783.2,49.17,779.93,50Z"/><path d="M552.61,122.4c-2.47-1.77-5.5,2.19-3.24,4.2,5.11,4.55,8.55,9.87,4.67,16.44-1.63,2.74,2.28,5.93,4.49,3.47C565.59,138.64,559.93,127.64,552.61,122.4Z"/><path d="M570.54,129.55c-3.26,0-5.83.64-8.93-.93a13,13,0,0,1-6.05-6.75c-1.22-2.81-5.35-.74-4.75,2,1.79,8,13.21,15.84,21.16,11A2.86,2.86,0,0,0,570.54,129.55Z"/><path d="M575.21,145.19c-3.21-6.12-12.51-7.11-17.65-3.33a2.71,2.71,0,0,0,2.73,4.68c3.92-1.89,7.3-.32,10.26,2.25A3,3,0,0,0,575.21,145.19Z"/><path d="M578,144.91c-1.76-3.55-7.21-6.53-3.68-10.93,1.93-2.4-.43-5.94-3.38-4.39-8.19,4.31-2.66,16.68,3.89,19.44C577.33,150.06,579,146.83,578,144.91Z"/></svg>
