<svg xmlns="http://www.w3.org/2000/svg" viewBox="0 0 77 170" fill='currentColor'><path d="M75.41,3.28a1.27,1.27,0,0,0-1.79,0,3.9,3.9,0,0,0-.71,1.61l-.46,1.63c-.33,1.2-.79,2.35-1.16,3.54a2.77,2.77,0,0,0-.15,1,1.68,1.68,0,0,0,.22.85l.08.11,0,0,.19.25-.1-.13,0,.05-.06-.07.15.19a1.33,1.33,0,0,0,.87.33h.06l-.33,0a1.67,1.67,0,0,0,.83,0,2.43,2.43,0,0,0,1.3-1.08,13.25,13.25,0,0,0,1.24-3.85A14.93,14.93,0,0,0,76,5.38,2.75,2.75,0,0,0,75.41,3.28Z"/><path d="M70.58,19.19a1.07,1.07,0,0,0-.07-.33.56.56,0,0,0,0-.07c0-.68-1-1.17-1.44-.59a1.88,1.88,0,0,1-.33.27c-.11.09-.21.19-.31.29a5,5,0,0,0-.67.9c-.32.52-.58,1.07-.87,1.62s-.61,1-.85,1.56l-.15.34a.76.76,0,0,0-.1.39c0,.23,0,.27,0,.1s0-.13,0-.05a.93.93,0,0,1-.05.1l-.06.21c0,.13,0,.27-.05.4s0,0,0,0a.93.93,0,0,0-.07.55,3.42,3.42,0,0,0,0,.46.73.73,0,0,0,.92.69,2.15,2.15,0,0,0,.5-.19,1.1,1.1,0,0,0,.37-.16c.13-.09.26-.16.39-.24a1.69,1.69,0,0,0,.52-.44c.06-.06,0-.05,0,0l.09-.07a1.48,1.48,0,0,0,.26-.24,9.06,9.06,0,0,0,1.13-1.86,12,12,0,0,0,.81-2,5.45,5.45,0,0,0,.19-1.13A2.78,2.78,0,0,0,70.58,19.19Z"/><path d="M61.23,32.2A.91.91,0,0,0,61.3,31a.93.93,0,0,0-1.17-.24c-.11.05-.12.06,0,0l-.19,0h0a1.75,1.75,0,0,0-.32,0,4.33,4.33,0,0,0-1,.37,6.71,6.71,0,0,0-1.51,1.08c-.38.35-.78.68-1.15,1a3.71,3.71,0,0,0-.27.29c-.16.17-.28.42-.44.56.16-.19.19-.22.08-.09l-.31.39c0,.07-.06.15-.1.22a2.55,2.55,0,0,0-.34.68v0l-.1.2s-.15.25-.08.17l-.08.1A.73.73,0,0,0,55,37.09l.24-.05h0c.29,0,.34,0,.16,0l.25,0a1.92,1.92,0,0,0,.75-.14,2.18,2.18,0,0,0,.69-.24c.1-.06.51-.27,0,0a3.21,3.21,0,0,0,.64-.34c.19-.15.4-.29.58-.45.37-.33.72-.69,1.08-1a8.47,8.47,0,0,0,1.18-1.36,4.68,4.68,0,0,0,.38-.64,1.34,1.34,0,0,0,.14-.36.61.61,0,0,1,.07-.14Z"/><path d="M48.91,40.1a.9.9,0,0,0-1.16-.23l-.2.11A1.61,1.61,0,0,0,47,40l-.26.08c.06,0-.33,0-.36,0-.43.08-.86.15-1.29.24a9.89,9.89,0,0,0-2.83,1c-.85.47-1.66,1-2.47,1.55-.29.19-.56.41-.83.62l-.06,0,.07-.06-.08.06s0,0,0,0l-.34.26a3.5,3.5,0,0,0-1.1,1.6c-.38.94.57,1.77,1.4,1.83a4.63,4.63,0,0,0,2.94-1.13c.79-.56,1.59-1.12,2.43-1.61s1.52-.71,2.27-1.1a7.43,7.43,0,0,0,1.19-.75c.17-.11.2-.14.1-.1s-.07,0,.24-.2l.22-.17a1.53,1.53,0,0,0,.4-.68,2.2,2.2,0,0,1,.19-.3A.91.91,0,0,0,48.91,40.1Z"/><path d="M38.92,43.62h0Z"/><path d="M28.17,50.3c-1.19-.56-2.52,0-3.66.47-.53.2-1.08.41-1.62.59-.27.1-.54.16-.81.26l-.34.11-.18.06-.5.21-.08.06h0c-.43.34-.46.35,0,0a2.14,2.14,0,0,0-1,.86,1.85,1.85,0,0,0,0,1.85,2.28,2.28,0,0,0,1.59,1l-.5-.21a2.87,2.87,0,0,0,1.31.31l.43,0a6.93,6.93,0,0,0,1.35-.3,11.62,11.62,0,0,0,2.19-1A7.41,7.41,0,0,0,28,53.28a2.83,2.83,0,0,0,.76-1.22A1.46,1.46,0,0,0,28.17,50.3Z"/><path d="M20.94,52.07h0l0,0Z"/><path d="M13.32,56.66c-.27-.55-1-.64-1.56-.62a4,4,0,0,0-1.65.48A9,9,0,0,0,7.88,58.2,13.69,13.69,0,0,0,6,60.38a5.86,5.86,0,0,0-.65,1.36c0,.11,0,.19,0,.26v0a2.1,2.1,0,0,0-.08.56,2.33,2.33,0,0,0,.18.78,1.05,1.05,0,0,0,1.26.72C6.83,64,7,64,7.07,64a2,2,0,0,0,.71-.42l.12-.12a1.45,1.45,0,0,0,.29-.27l.18-.22.38-.45c.2-.24.38-.5.56-.76h0l0,0c.06-.07.12-.16.19-.23a9.94,9.94,0,0,1,.81-.91c.28-.28.57-.55.88-.81.07-.06.15-.11.21-.17l.25-.2.44-.37.06-.05a3.57,3.57,0,0,0,.37-.31c.12-.12.23-.23.34-.36a2,2,0,0,1,.28-.37l0,.05,0-.06s0,0,0,0,0,0,0,0l.06-.07A1.1,1.1,0,0,0,13.32,56.66Z"/><path d="M9.32,61.71c.26-.3.07-.09,0,0Z"/><path d="M9.56,74a6.83,6.83,0,0,0-.8-1.57,16.64,16.64,0,0,1-.91-1.72h0c0-.14-.12-.27-.17-.41.12.29,0-.12-.08-.2-.09-.27-.13-.56-.22-.82h0a2.63,2.63,0,0,0-.06-.39l-.09-.33h0a.56.56,0,0,0,0-.13,1.94,1.94,0,0,1,0-.22h0s0-.06,0-.08a.6.6,0,0,0-.87-.67l-.1.07h0a2,2,0,0,0-.35.22,2.07,2.07,0,0,0-.37.47,2.36,2.36,0,0,0-.35,1.34,7.44,7.44,0,0,0,.74,2.65A11.6,11.6,0,0,0,7.1,74.31c.16.22.32.43.49.64a1.6,1.6,0,0,0,.26.26l0,0s0,0,.06.08a2.57,2.57,0,0,0,.81.58.74.74,0,0,0,1.11-.63A3,3,0,0,0,9.56,74Z"/><path d="M7.19,68.17Z"/><path d="M7.2,68.21s0,0,0,0v0C7.2,68.29,7.2,68.29,7.2,68.21Z"/><path d="M18.08,84.49a6.59,6.59,0,0,0-.3-.73,5.18,5.18,0,0,0-.93-1.12A18.59,18.59,0,0,1,15.39,81a2.67,2.67,0,0,1-.31-.51,1.11,1.11,0,0,0-.05-.25,1.44,1.44,0,0,0-.8-.89,1.29,1.29,0,0,0-1.22.07,1.67,1.67,0,0,0-.74,1.09,2.24,2.24,0,0,0,0,1.15A5.13,5.13,0,0,0,13,83a12.15,12.15,0,0,0,2.17,2.36,2.94,2.94,0,0,0,1.8.78,1,1,0,0,0,.91-.24,1,1,0,0,0,.25-.77s0,0,0,0A1.51,1.51,0,0,0,18.08,84.49Z"/><path d="M28.69,93.5c0,.07,0,0,0,0l0-.07a1.64,1.64,0,0,0-.26-.53c0-.07-.06-.15-.1-.23a3.55,3.55,0,0,0-.35-.44,2.54,2.54,0,0,0-.28-.29c-.34-.27-.67-.56-1-.8s-.93-.64-1.39-1a6.17,6.17,0,0,1-1-.93l.26.33a2.54,2.54,0,0,0-.37-.44A1.14,1.14,0,0,1,24,89a1.51,1.51,0,0,0-.7-.41,1.55,1.55,0,0,0-1,.08,1.52,1.52,0,0,0-.63.49,1.37,1.37,0,0,0-.34,1,2.31,2.31,0,0,0,.34,1.17,4.8,4.8,0,0,0,.61.74,11,11,0,0,0,1.09,1c.52.42,1.05.85,1.61,1.22A4.15,4.15,0,0,0,26.9,95h0a1.43,1.43,0,0,0,.61,0h0l.18,0c-.14,0,0,0,.1,0a1,1,0,0,0,.86-.49A1,1,0,0,0,28.69,93.5Z"/><path d="M36.24,105.23h0C36.27,105.16,36.26,105.19,36.24,105.23Z"/><path d="M33.5,102.33a.28.28,0,0,0,0,.11.36.36,0,0,1,0-.09Z"/><path d="M36.64,103.78v0h0a1.2,1.2,0,0,0,0-.27c0-.22,0-.44-.09-.66a5,5,0,0,0-.2-.76,8.38,8.38,0,0,0-.84-1.63,6.21,6.21,0,0,0-1.25-1.31,12,12,0,0,0-1.67-1,.89.89,0,0,0-1.07,1.4c.11.11.23.21.33.33L32,100s0,0,0,0l0,0,.29.4.2.24h0c.27.45.58.87.83,1.34,0,.09.09.19.14.29a.06.06,0,0,1,0,0,.14.14,0,0,0,0,.06h0l0,.08s0,0,0,0c.09.24.15.49.23.74s.14.54.22.81l.14.33.07.09,0,0a1.72,1.72,0,0,0,.28.47c.09.22.19.44.29.65a.74.74,0,0,0,1.27,0l.13-.31,0-.08a3.69,3.69,0,0,0,.19-.56h0a2.68,2.68,0,0,0,.18-.63A2.51,2.51,0,0,0,36.64,103.78Z"/><path d="M35,113.9h0v0Z"/><path d="M38,111.77a2.37,2.37,0,0,0-1-1.11l-.19-.11-.28-.11-.2-.09a1.26,1.26,0,0,0-.47-.08.8.8,0,0,0-.78.78,1.33,1.33,0,0,0,0,.4v0c0,.12,0,.09,0,0v0a3,3,0,0,0-.06.52c0,.3,0,.6,0,.9s0,.62,0,.93a.52.52,0,0,0,0-.11s0,.08,0,.12,0,.11,0,0a.88.88,0,0,0,0,.16l-.09.48-.09.49-.06.24a2.24,2.24,0,0,0-.07.51l0-.26a7.94,7.94,0,0,0-.12,1.29l0,.43a2.35,2.35,0,0,0,.05.37s0,0,0,.09a1.21,1.21,0,0,0,0,.19l0,.28c0-.14,0-.17,0-.09a2.31,2.31,0,0,0,.06.52.78.78,0,0,0,1.13.46,4.59,4.59,0,0,0,.83-.63,1,1,0,0,0,.2-.15s.44-.62.16-.21c.1-.15.23-.28.33-.43a.87.87,0,0,0,.16-.23l.18-.23.12-.26a6.32,6.32,0,0,0,.32-.82,8.86,8.86,0,0,0,.27-1.54,6.72,6.72,0,0,0,0-1.1A4.74,4.74,0,0,0,38,111.77Z"/><path d="M31.74,124.28c-1.54-.4-2.4,1-3.09,2.12a12.07,12.07,0,0,0-.62,1.11,5.69,5.69,0,0,0-.61,1.55l-.09.31a2.53,2.53,0,0,0-.09.55s0,.19.05.34h0a1.25,1.25,0,0,0,0,.19,1.41,1.41,0,0,0,.1.6,1.16,1.16,0,0,0,0,.18,1,1,0,0,0,1.52.62l.09-.06a1.39,1.39,0,0,0,.5-.3l.12-.12a2.48,2.48,0,0,0,.79-.79,3.67,3.67,0,0,0,.54-.68,6.16,6.16,0,0,1,.33-.55c.23-.37.45-.74.67-1.13a9.46,9.46,0,0,0,.77-1.44,3,3,0,0,0,.18-.89A1.7,1.7,0,0,0,31.74,124.28Z"/><path d="M24.2,136.48a1.2,1.2,0,0,0-1.47,0,2.89,2.89,0,0,0-.3.13l-.26.14c-.19.11-.37.23-.55.35a12.72,12.72,0,0,0-1.28,1c-.66.59-1.33,1.15-2,1.71l-.09.07-.41.26-.8.51a5.92,5.92,0,0,0-1.09.91,2.66,2.66,0,0,0-.82,1.94,1.69,1.69,0,0,0,.23,1.07,1.62,1.62,0,0,0,1.39.8,2.23,2.23,0,0,0,.77-.2,3,3,0,0,0,.63-.28,2.18,2.18,0,0,0,.38-.3c.26-.17.52-.34.77-.52a22.3,22.3,0,0,0,1.94-1.41,16.62,16.62,0,0,0,1.82-1.93,8,8,0,0,0,1-1.42q.19-.41.36-.81c0-.1.09-.22.12-.32v-.09l0,0A1.23,1.23,0,0,0,24.2,136.48Z"/><path d="M7.1,151.87h0s.08-.1.1-.12l-.05.06Z"/><path d="M9.19,147.07a7.81,7.81,0,0,0-1.43.5,10.54,10.54,0,0,0-1.26.83A6.82,6.82,0,0,0,4,151.33a2.57,2.57,0,0,0-.16.95,1.68,1.68,0,0,0,.55,1.33,1.25,1.25,0,0,0,1,.37.8.8,0,0,0,.4-.11.5.5,0,0,0,.14-.1l0,0s.19-.13.26-.21a.73.73,0,0,0,.09-.11,3.65,3.65,0,0,0,.24-.31,1.26,1.26,0,0,0,.17-.48c0-.14.19-.51,0,0l.13-.31a4.6,4.6,0,0,1,.31-.53L7,152l.08-.09v0c0-.07.13-.15.08-.09l.15-.17c.2-.2.4-.39.61-.57s.42-.38.64-.56l.12-.1.33-.24A12.46,12.46,0,0,0,10.3,149,1.15,1.15,0,0,0,9.19,147.07Z"/><path d="M9.47,161.63a4.5,4.5,0,0,0-.83-1.42A13.69,13.69,0,0,1,7.82,159c-.09-.15-.17-.31-.26-.48,0,.05,0,0,0-.09h0l-.06-.13h0l.06.11a1.87,1.87,0,0,1-.07-.22,2.25,2.25,0,0,0-.11-.54h0a1.48,1.48,0,0,0,0-.21.89.89,0,0,0-1.1-1s-.12,0-.14,0l-.13,0-.28.11a2.59,2.59,0,0,0-.42.32,1.9,1.9,0,0,0-.64,1.32,4.16,4.16,0,0,0,.47,2,9.62,9.62,0,0,0,.87,1.4,6.8,6.8,0,0,0,1.18,1.49,4,4,0,0,0,.27.31,1.55,1.55,0,0,0,.54.31l0,.05a.94.94,0,0,0,1,.19,1,1,0,0,0,.59-.87.89.89,0,0,1,0-.15.43.43,0,0,1,0-.11A1.93,1.93,0,0,0,9.47,161.63Z"/><path d="M7.51,158.42a.41.41,0,0,1,0,.09.59.59,0,0,0,0-.12v0Z"/></svg>
