<svg  xmlns="http://www.w3.org/2000/svg" viewBox="0 0 200 170" fill='currentColor'><path d="M124.92,83.22a3,3,0,0,0-1.1-1,7.35,7.35,0,0,0-1.31-.49,18.15,18.15,0,0,0-2.08-.39c-.81-.13-1.62-.27-2.44-.32a3.91,3.91,0,0,0-1.7.17,1.59,1.59,0,0,0-.38,2.9,5,5,0,0,0,1.59.55q1,.21,2,.39c.67.13,1.34.29,2,.4a4.11,4.11,0,0,0,2.93-.3A1.43,1.43,0,0,0,124.92,83.22Z"/><path d="M144.88,86.84a2.83,2.83,0,0,0-.7-.55,3,3,0,0,0-.91-.54l-.27-.1-.11-.06-.41-.17a9.83,9.83,0,0,0-2.22-.45,16.14,16.14,0,0,0-1.83-.16,4.27,4.27,0,0,0-1.18.13,2.68,2.68,0,0,0-.6.21c.23-.08.17-.05-.19.09l-.32.25A1.21,1.21,0,0,0,136,87a1.63,1.63,0,0,0,.45.49,3.65,3.65,0,0,0,1.9.92c.77.15,1.54.27,2.31.38a8.19,8.19,0,0,0,1,0H142a3.07,3.07,0,0,0,.42-.07h.14a2.16,2.16,0,0,0,.68-.06c.16,0,.17-.05,0,0a1.35,1.35,0,0,0,.63-.17,1.77,1.77,0,0,0,.23,0,4.49,4.49,0,0,0,.56-.24A.88.88,0,0,0,144.88,86.84Z"/><path d="M159.4,82.11l.12,0C159.17,82.14,159.14,82.14,159.4,82.11Z"/><path d="M153.75,84.11l-.14.11Z"/><path d="M162.16,83a.89.89,0,0,0-.64-.85,3.28,3.28,0,0,0-.63,0,1.66,1.66,0,0,0-.51-.07c-.21,0-.55-.08,0,.07a2,2,0,0,0-.6-.06l-.34,0a6.58,6.58,0,0,0-.75.14c-.61.15-1.19.35-1.79.54a14.72,14.72,0,0,0-2.18.74l-.41.22a4.8,4.8,0,0,0-.52.36c.06,0,.05,0-.05,0l-.42.32a2,2,0,0,0-.45.81,1.36,1.36,0,0,0,.36,1.36,3.47,3.47,0,0,0,2.53.7,10.86,10.86,0,0,0,2.39-.46,7.74,7.74,0,0,0,2.17-.93l.2-.13.25-.19q.36-.27.09-.09c-.18.12-.15.09.08-.08a.92.92,0,0,0,.34-.34s.38-.43.13-.19.13-.17.12-.17l.22-.3a2,2,0,0,0,.25-.69l0-.08c0-.11,0-.12,0,0A2.55,2.55,0,0,0,162.16,83Z"/><path d="M174.54,72.44a1.6,1.6,0,0,0-.95-.74,1.78,1.78,0,0,0-1.24.16,7,7,0,0,0-1.65,1.51,14.19,14.19,0,0,1-1.49,1.41c-.33.24-.66.48-1,.73l.41-.31c-.16.11-.31.23-.48.34a2.55,2.55,0,0,0-.53.4,4.7,4.7,0,0,0-.38.5l.26-.34a2,2,0,0,0-.56,1.25,1,1,0,0,0,.16.68v0a.42.42,0,0,1,0,.1,2,2,0,0,0,.29.36,2.2,2.2,0,0,0,.92.51,3.24,3.24,0,0,0,1.72-.06,6.29,6.29,0,0,0,2.12-1.09,7.73,7.73,0,0,0,1.17-1,13.69,13.69,0,0,0,.88-1.13,3.5,3.5,0,0,0,.54-1.31,3.94,3.94,0,0,0,.1-.84A2.8,2.8,0,0,0,174.54,72.44Z"/><path d="M183.13,58.14l.23.53a3.26,3.26,0,0,0-.15-.44s0,0,0,0v0c-.05-.11-.2-.41-.25-.49a2.22,2.22,0,0,0-.36-.45,4.14,4.14,0,0,0-.54-.42,1.73,1.73,0,0,0-2.35.61,1.18,1.18,0,0,1-.11.19.94.94,0,0,0-.23.41,2.77,2.77,0,0,0-.26.48c-.07.17-.15.34-.22.52-.28.63-.62,1.23-.92,1.85l-.48,1a7.09,7.09,0,0,0-.38,1c0,.07-.05.15-.07.23a1.87,1.87,0,0,0-.08.44,2.66,2.66,0,0,0,0,.28,1.93,1.93,0,0,0,0,1.09,1.77,1.77,0,0,0,1.62,1.23,1.75,1.75,0,0,0,.85-.16,1,1,0,0,0,.56-.27l.11-.07.12,0,.44-.34a4.13,4.13,0,0,0,.55-.47A9.49,9.49,0,0,0,182.45,63a9.74,9.74,0,0,0,.82-1.94c.06-.22.11-.45.15-.68a4.48,4.48,0,0,0,.09-.89A3.14,3.14,0,0,0,183.13,58.14Z"/><path d="M179.07,58.56l0,0c0-.08,0-.15.08-.22Z"/><path d="M179.07,58.56c0,.1-.09.2-.13.31Z"/><path d="M183.37,46.71a9,9,0,0,0-.31-1.13,3.15,3.15,0,0,0-1.46-1.87l-.1-.08a1.69,1.69,0,0,0-.28-.12,1,1,0,0,0-.42-.13l-.09,0a1.55,1.55,0,0,0-.37,0,.88.88,0,0,0-.89.22.91.91,0,0,0-.27.64,1.1,1.1,0,0,0,0,.18v0a0,0,0,0,0,0,0,1,1,0,0,0,0,.24,1.16,1.16,0,0,0,0,.37,1.67,1.67,0,0,0,0,.8,3,3,0,0,0,.12.73c.06.16.12.33.17.5.1.32.15.67.26,1a8.28,8.28,0,0,0,.5,1.28,2.21,2.21,0,0,0,.74.84,1.51,1.51,0,0,0,1.19.19C183.61,49.87,183.64,48,183.37,46.71Z"/><path d="M178.47,37a3,3,0,0,0-.24-1.07,4.81,4.81,0,0,0-.58-1.1,8.84,8.84,0,0,0-.87-1.07,16.81,16.81,0,0,0-1.86-1.51,3.18,3.18,0,0,0-2.53-.68,1.64,1.64,0,0,0-.44.09h0a.91.91,0,0,0-.68,1.5,1.31,1.31,0,0,0,.28.44h0A4.43,4.43,0,0,0,173.12,35l.39.26.25.2c.21.17.41.33.61.51s.5.42.74.64l.33.31c.13.12.26.22.41.34-.39-.31-.16-.13-.08-.06.28.22.52.48.81.68l.07,0a.92.92,0,0,0,.21.13l.07,0,0,0a1,1,0,0,0,.23.17.85.85,0,0,0,1.13-.3,1.47,1.47,0,0,0,.18-.58v0A1.15,1.15,0,0,0,178.47,37Z"/><path d="M166.55,27.4a6,6,0,0,0-2.06-1.09,8.92,8.92,0,0,0-2.11-.45,11.54,11.54,0,0,0-2.12-.08,3.73,3.73,0,0,0-2.93,1.14,1.64,1.64,0,0,0,0,2.25,3.5,3.5,0,0,0,1.41.81,4.82,4.82,0,0,0,1.52.11c.71,0,1.42,0,2.12,0l.18,0,.23,0c.42.08.84.13,1.27.17a3.2,3.2,0,0,0,2.49-.68A1.64,1.64,0,0,0,166.55,27.4Z"/><path d="M142.18,31.86h0Z"/><path d="M149.87,28.55c-.18,0-.08,0-.23-.09l-.32-.2a3.56,3.56,0,0,0-1-.4,7.55,7.55,0,0,0-2.64.07,11.39,11.39,0,0,0-2.08.47,3.92,3.92,0,0,0-2.17,1.42c0,.05-.09.1-.13.16a1.4,1.4,0,0,0-.16.26c0,.06-.13.24-.15.29v0a1.3,1.3,0,0,0-.08.17,4.22,4.22,0,0,0-.18.45.72.72,0,0,0,1,.81l0,0h0a.85.85,0,0,1,.17-.06l.05,0h.14l.37-.05s.06,0,.08,0a3.45,3.45,0,0,0,.79-.15c.75-.18,1.5-.4,2.25-.58.39-.1.79-.18,1.19-.25.16,0,.32-.06.48-.07h.07a3,3,0,0,0,.6-.11,5.86,5.86,0,0,0,1.15-.42l.37-.22.12-.06h.05C150.45,29.92,150.68,28.74,149.87,28.55Z"/><path d="M135.19,32.73a4.42,4.42,0,0,0-1.2-.25,6.16,6.16,0,0,0-1.28.17,9.42,9.42,0,0,0-2.34.92c-.67.36-1.33.75-2,1.14a5.44,5.44,0,0,0-1.08.77l-.14.18,0,0-.19.2a1.13,1.13,0,0,0-.22.27c-.1.24-.13.31-.09.2s0,0,0,0a.75.75,0,0,0,.45,1.1c.22,0-.19,0,.13,0a1.84,1.84,0,0,0,.42.09,5.54,5.54,0,0,0,.57-.07,2.54,2.54,0,0,0,.37,0l.21-.08.49-.2A21.27,21.27,0,0,0,131.41,36c.64-.36,1.28-.71,2-1l.21-.1,0,0,.07,0,.5-.17c.36-.12.69-.29,1-.37A.8.8,0,0,0,135.19,32.73Z"/><path d="M123.25,39.88a1.1,1.1,0,0,0-1-.51,4.71,4.71,0,0,0-.85.14,4.93,4.93,0,0,0-1.4.78c-.47.34-.88.75-1.32,1.12a3.11,3.11,0,0,0-1,1.36,2.25,2.25,0,0,0-.08.24l0,.08a.91.91,0,0,0,.63,1.11h.08l.11,0,.18,0c-.21,0-.14,0,.21,0a2,2,0,0,0,.59-.09,2.83,2.83,0,0,0,.86-.45,12.55,12.55,0,0,0,1.33-1.19c.17-.17.33-.35.49-.53s.34-.3.5-.47.28-.32.45-.47A1,1,0,0,0,123.25,39.88Z"/><path d="M113.24,48a1.79,1.79,0,0,0-1.94-.69,4.05,4.05,0,0,0-1.12.4,9.31,9.31,0,0,0-1.87,1.38,15.3,15.3,0,0,0-1.45,1.56c-.29.34-.59.67-.85,1l-.26.39a1.49,1.49,0,0,0-.24.51l-.08.14a1.83,1.83,0,0,0-.19.94,1.22,1.22,0,0,0,1.25,1.24,1.55,1.55,0,0,0,1-.21l.17-.1a5,5,0,0,0,1.67-1.52c.45-.54.91-1.06,1.38-1.57.22-.24.45-.48.69-.7s.21-.19.32-.28l.13-.1c.28-.19.56-.37.83-.57l.26-.21a.7.7,0,0,0,.24-.3c-.15.19-.19.25-.12.17l.21-.28a.76.76,0,0,0,.13-.31A1.26,1.26,0,0,0,113.24,48Z"/><path d="M101.28,60.41h0C101.18,60.54,101.23,60.52,101.28,60.41Z"/><path d="M102.07,58.08a.8.8,0,0,0-.87-.14,1.26,1.26,0,0,0-.28,0,2.41,2.41,0,0,0-.5.21,4.34,4.34,0,0,0-.8.57,7.55,7.55,0,0,0-1.13,1.06c-.39.45-.76.92-1.12,1.39a5.87,5.87,0,0,0-.46.65A2.54,2.54,0,0,0,96.58,63a1.23,1.23,0,0,0,.12.72,1.19,1.19,0,0,0,.29.34,1.16,1.16,0,0,0,1.31,0,3.47,3.47,0,0,0,1.29-1.34l.43-.63c.09-.11.17-.23.25-.34l.09-.11c.21-.26.42-.51.61-.79l.22-.3a1.47,1.47,0,0,0,.1-.13h0a5.9,5.9,0,0,0,.58-.74,2.14,2.14,0,0,0,.17-.3,2,2,0,0,0,.1-.26l.06-.08A.79.79,0,0,0,102.07,58.08Z"/><path d="M93.38,69.55a3.18,3.18,0,0,0-.69.57,6.44,6.44,0,0,0-.57.8c-.26.47-.49,1-.71,1.45s-.42,1-.64,1.46a2.66,2.66,0,0,0-.37,2,.72.72,0,0,0,.86.49A2.1,2.1,0,0,0,92.59,75c.25-.56.47-1.13.71-1.69,0,0,0-.11.07-.17h0l.17-.39c.1-.23.22-.47.33-.7a11.87,11.87,0,0,0,.69-1.6A.81.81,0,0,0,93.38,69.55Z"/><path d="M91.16,81.31c0-.74-.15-1.68-1.1-1.72-.73,0-1.23.76-1.37,1.39a8.52,8.52,0,0,0-.18,1.6c0,.47,0,.93,0,1.4,0,.15,0,.31,0,.47a.6.6,0,0,0,0,.12,2.83,2.83,0,0,0,0,.58A1.31,1.31,0,0,0,89,86.29h0l0,0a1,1,0,0,0,.38.16h.08l.13,0a1.35,1.35,0,0,0,1.22-.64,3.49,3.49,0,0,0,.36-1.75c0-.47,0-.94,0-1.42S91.16,81.76,91.16,81.31Z"/><path d="M91,95.29c-.06-1.06-.19-2.12-.17-3.19a.72.72,0,0,0-1.42-.19c-.16,1-.18,2.12-.26,3.19a21.34,21.34,0,0,0-.08,3c0,.52.71.93,1.11.47A4.54,4.54,0,0,0,91,95.29Z"/><path d="M91.5,108.4c0-.67-.11-1.34-.19-2s-.24-1.5-.39-2.24a5.22,5.22,0,0,0-.25-.88c-.21-.53-.74-1.19-1.41-.92a1.5,1.5,0,0,0-.93,1.1,4.87,4.87,0,0,0-.15,1.2,13.11,13.11,0,0,0,0,1.88c.05.62.1,1.24.12,1.87q0,.46,0,.93a7.53,7.53,0,0,0,.07,1.34,1.51,1.51,0,0,0,1.47,1.12,1.6,1.6,0,0,0,1.48-1.12A6,6,0,0,0,91.5,108.4Z"/><path d="M91.52,119.18a5.7,5.7,0,0,0-.33-.9,1.58,1.58,0,0,0-.93-.84l.46.27-.15-.16a.94.94,0,0,0-1.58.6,4.94,4.94,0,0,0-.15,1.48c0,.51,0,1-.09,1.52-.1,1.12-.34,2.41.24,3.44a1.31,1.31,0,0,0,2.24,0,4.1,4.1,0,0,0,.44-2,14.87,14.87,0,0,0,0-1.63A8.62,8.62,0,0,0,91.52,119.18Z"/><path d="M89.3,136.68c0-.05,0,0,0,.25a.11.11,0,0,0,0-.05A1.5,1.5,0,0,0,89.3,136.68Z"/><path d="M92.48,134.94c0-.61-.06-1.22-.11-1.82a6.62,6.62,0,0,0-.2-1.08,2.25,2.25,0,0,0-.5-.94,1.12,1.12,0,0,0-1.58,0,2,2,0,0,0-.47.91,7.48,7.48,0,0,0-.16,1c0,.59,0,1.19,0,1.78s0,1.2-.1,1.79v.06a.76.76,0,0,1,0,.14s0,0,0,.06,0,.08,0,.12v-.07c0,.14,0,.28-.06.42v.3a1.69,1.69,0,0,0,.13.66,1.2,1.2,0,0,0,.15.3,1.37,1.37,0,0,0,1.82.46c.08,0,.06,0,0,0a1.5,1.5,0,0,0,.67-.6c.05-.09.08-.18.12-.26a4.52,4.52,0,0,0,.32-1.41A12.53,12.53,0,0,0,92.48,134.94Z"/><path d="M92.32,150.88a17,17,0,0,0-.15-1.89,12.34,12.34,0,0,0-.41-2.08c-.27-.83-1-2.1-2.07-1.56a2,2,0,0,0-.83,2.06c0,.58.13,1.17.2,1.75a16.38,16.38,0,0,1,.13,1.72,4.31,4.31,0,0,0,.26,1.79,1.41,1.41,0,0,0,.25.57h0c.14.23.19.29.14.16a.77.77,0,0,0,1,.27c-.14.06.21-.07.21-.07l.19-.14.1-.07a.77.77,0,0,0,.22-.22l.06-.1A3.12,3.12,0,0,0,92.32,150.88Z"/><path d="M92.22,160.29c0-.25-.1-.5-.14-.75,0-.08,0-.17,0-.25s0-.08,0-.13l-.06-.49v0c0-.06,0-.12,0-.18a2.07,2.07,0,0,0-.13-.61h0a.36.36,0,0,1,0-.11,1,1,0,0,0-.23-.44v0a1.18,1.18,0,0,0-1.28-.48,2.19,2.19,0,0,0-.85.58,2.3,2.3,0,0,0-.52,1.36,7.1,7.1,0,0,0,.17,2l.06.38v.05h0v.12c0,.25,0,0,0-.08a3.27,3.27,0,0,0,.08.5c0,.1,0,.2,0,.31s0,.07,0,.11h0s0,.08,0,.11v-.07a2.52,2.52,0,0,0,.06.48c0,.12.07.23.1.34s0,.22.07.33a1.33,1.33,0,0,0,.15.32.71.71,0,0,1,.1.13,2,2,0,0,0,.11.28.76.76,0,0,0,.83.33.9.9,0,0,0,.39-.16,1.55,1.55,0,0,0,.85-.73,3.1,3.1,0,0,0,.44-1.29A7.14,7.14,0,0,0,92.22,160.29Z"/><path d="M89.25,162c0-.07,0-.08,0,.16v0A.5.5,0,0,1,89.25,162Z"/><path d="M91.54,157.26l.06.07Z"/><path d="M89.13,161.15s0,0,0,0a.06.06,0,0,1,0,0Z"/><path d="M89.66,163.67s0,0,0,0S89.64,163.63,89.66,163.67Z"/><path d="M55.12,64,55,63.91a6.51,6.51,0,0,0-1.45-1c-.54-.3-1.12-.58-1.67-.84a10,10,0,0,0-2-.81,3.69,3.69,0,0,0-.58-.09s0,0-.11,0a1.67,1.67,0,0,0-.32-.08l-.19,0-.12,0a1.74,1.74,0,0,0-.6,0,.8.8,0,0,0-.76,1,1.48,1.48,0,0,0,.17.5.57.57,0,0,0,.12.15,1,1,0,0,0,.06.16,1,1,0,0,0,.26.41l.08.1a4,4,0,0,0,.3.47l.21.28c.1.11.35.46.12,0a2.36,2.36,0,0,0,.71.73,8.17,8.17,0,0,0,1.43.85,8.51,8.51,0,0,0,1.83.66,4.07,4.07,0,0,0,2-.06h.06a1.26,1.26,0,0,0,1.16-.88A1.23,1.23,0,0,0,55.12,64Z"/><path d="M48.85,61Z"/><path d="M42.1,57.4a.69.69,0,0,0,0-.13c.07.32,0,.17,0-.16a2.74,2.74,0,0,0-.35-.87,5.19,5.19,0,0,0-.37-.65L40.89,55c-.28-.42-.59-.82-.9-1.22a4.09,4.09,0,0,0-1.63-1.41A2.52,2.52,0,0,0,37.3,52s.27.05.11,0l-.17,0-.52-.07a.77.77,0,0,0-.73,1l.06.3s0,.14.06.19a2.44,2.44,0,0,0,0,.39.81.81,0,0,0,.11.27,2.79,2.79,0,0,0,.4,1,5.59,5.59,0,0,0,.41.66c.38.52.75,1,1.17,1.52.16.18.32.37.49.54a4.27,4.27,0,0,0,.88.63,2.43,2.43,0,0,0,2,.3.84.84,0,0,0,.59-.77A2.42,2.42,0,0,0,42.1,57.4Z"/><path d="M35.67,45.59a1.4,1.4,0,0,0-.18-.45,1.56,1.56,0,0,0-.16-.2,1.3,1.3,0,0,0-.1-.15l-.1-.16-.25-.41-.19-.39a2.14,2.14,0,0,1-.1-.22c-.16-.4-.3-.79-.48-1.18l-.44-.9a5.33,5.33,0,0,0-.68-1c-.05-.06-.1-.13-.16-.19a1,1,0,0,0-.22-.18l0,0c0-.13-.38-.35-.46-.41a2.54,2.54,0,0,0-.88-.41.75.75,0,0,0-.92.92c0,.12.07.25.11.37s.07.34,0,0a2.33,2.33,0,0,0,.07.41,1,1,0,0,0,.07.23.58.58,0,0,0,0,.23c0,.17.08.33.11.49a11.55,11.55,0,0,0,.63,2.05,8.73,8.73,0,0,0,1.26,2.35,2.4,2.4,0,0,0,1.2.87c.83.18,1.79-.1,1.85-1.11A1.9,1.9,0,0,0,35.67,45.59Z"/><path d="M31.47,33.46v.06a.45.45,0,0,0,0-.12h0Z"/><path d="M31.84,28.63a1.25,1.25,0,0,0-.41-.68.74.74,0,0,0-1,0,2.14,2.14,0,0,0-.28.32,1.79,1.79,0,0,0-.13.32v0a2.15,2.15,0,0,0-.17.34,1.11,1.11,0,0,1-.07.16l-.09.22c-.1.28-.2.58-.28.87-.17.62-.26,1.28-.37,1.91a13.89,13.89,0,0,0-.23,2,3,3,0,0,0,.15,1,2,2,0,0,0,.78,1,1.15,1.15,0,0,0,1.72-1c0-.12,0-.23,0-.34v0a.85.85,0,0,0,0-.16c0-.22,0-.45,0-.67l0-.39a.13.13,0,0,1,0-.06v-.06s0-.07,0-.1,0,0,0,0c.05-.29.1-.58.16-.87A20.2,20.2,0,0,0,32,30.47,3.5,3.5,0,0,0,31.84,28.63Z"/><path d="M37.44,18.58v-.1a1.15,1.15,0,0,0,0-.33V18a.69.69,0,0,0-1.16-.48l-.07.06a2.43,2.43,0,0,0-.28.2c-.09.07-.12.09,0,0a1.37,1.37,0,0,0-.38.38,3.23,3.23,0,0,0-.41.75q-.36.82-.72,1.62l-.24.58,0,.1-.06.13c-.13.31-.28.61-.4.93a1.8,1.8,0,0,1-.08.21.51.51,0,0,0,0,.1l-.15.33a6.85,6.85,0,0,1-.4.69c-.49.73.6,1.53,1.21.93a11.26,11.26,0,0,0,2.14-2.86c.26-.53.49-1.08.73-1.61a5.2,5.2,0,0,0,.36-1A1.26,1.26,0,0,0,37.44,18.58Z"/><path d="M42.55,10.72a.83.83,0,0,0-1.38-.6h0l-.11.08a2,2,0,0,0-.35.3,5.12,5.12,0,0,0-.5.63l-.36.51,0,0a2.43,2.43,0,0,1-.2.25,7.65,7.65,0,0,0-.79,1.16,11.48,11.48,0,0,0-.58,1.23.83.83,0,0,0,.38.93.84.84,0,0,0,1-.13c.53-.6,1.18-1.08,1.68-1.71.3-.37.59-.74.86-1.14A2.4,2.4,0,0,0,42.55,10.72Z"/><path d="M50.72,3.05a.31.31,0,0,0,0-.1V3a.89.89,0,0,0-.83-.88l-.27,0h0a1.93,1.93,0,0,0-1.34.49,5.24,5.24,0,0,0-.5.44,7.21,7.21,0,0,0-1,1.33,10.66,10.66,0,0,0-.61,1.1,3.3,3.3,0,0,0-.32.86,5.14,5.14,0,0,0-.06.55s0,.08,0,.12,0,0,0,0A1,1,0,0,0,46.16,8a1,1,0,0,0,1.14.08,4.37,4.37,0,0,0,1.17-.83c.34-.41.67-.84,1-1.28s.54-.67.76-1l.31-.57A1.93,1.93,0,0,0,50.72,3.05Z"/><path d="M67.83,71.37l0,0,0,0a.94.94,0,0,1-.1-.1,2.45,2.45,0,0,0-.76-.46,5.92,5.92,0,0,0-1.08-.35c-.81-.19-1.62-.38-2.42-.59S61.82,69.29,61,69l-.53-.18-.24-.1-.06,0a5.63,5.63,0,0,0-.69-.24l-.17-.06-.15-.06c-.72-.35-1.65.39-1.16,1.16a6.39,6.39,0,0,0,.69.95,6.55,6.55,0,0,0,1.11.83,11.77,11.77,0,0,0,2.7,1.16,15.31,15.31,0,0,0,2.59.64,5.44,5.44,0,0,0,1.56,0,2.79,2.79,0,0,0,1.14-.5A.72.72,0,0,0,67.83,71.37Z"/><path d="M82.68,75.79a2.72,2.72,0,0,0-2.15-1.26c-.62-.14-1.25-.25-1.88-.35s-1.2-.26-1.8-.38a5.7,5.7,0,0,0-1.63-.21,1.45,1.45,0,0,0-1.11.55,1.33,1.33,0,0,0-.26,1.24,2.39,2.39,0,0,0,1,1.21c.22.13.45.25.68.36a13.65,13.65,0,0,0,2.16.71,17.56,17.56,0,0,0,1.92.36,8.52,8.52,0,0,0,1.24.09,2.3,2.3,0,0,0,1.09-.26,1.37,1.37,0,0,0,.55-.45h0A1.33,1.33,0,0,0,82.68,75.79Z"/><path d="M105.85,81.07a3.9,3.9,0,0,0-1.28-.74,6,6,0,0,0-1-.21l-.53-.07h-.08l-.82-.11-.62-.06-.22,0c-.7-.1-1.38-.25-2.08-.4l-1.06-.19a3,3,0,0,0-1.89.17,1.55,1.55,0,0,0-.54,2.07c.4.88,1.7,1.36,2.56,1.63a16.31,16.31,0,0,0,2.18.48,15.07,15.07,0,0,0,2.59.27,6.61,6.61,0,0,0,1.41-.12,3.71,3.71,0,0,0,1.42-.74A1.37,1.37,0,0,0,105.85,81.07Z"/></svg>
