<svg xmlns="http://www.w3.org/2000/svg" viewBox="0 0 500 500" fill="currentColor"><path class="cls-1" d="M22.6 210.14H0v79.18h22.6c11.92 0 20.69-2.88 28.22-9.18a39.87 39.87 0 0014.39-30.41c-.14-23.29-17.54-39.59-42.61-39.59zm18.08 59.45c-4.79 4.38-11.09 6.3-21.09 6.3h-4.11v-52.33h4.11c10 0 16 1.78 21.09 6.44a26.53 26.53 0 018.5 19.73 27.08 27.08 0 01-8.5 19.86zM72.19 210.14h15.48v79.18H72.19zM125.34 240.55c-9.31-3.43-11.92-5.76-11.92-10 0-4.93 4.8-8.77 11.51-8.77 4.66 0 8.36 1.92 12.47 6.44l8.08-10.55a34.71 34.71 0 00-23.29-8.77c-14 0-24.66 9.73-24.66 22.61 0 11 4.94 16.44 19.46 21.64 6 2.19 9.17 3.56 10.68 4.52a9.51 9.51 0 014.66 8.22c0 6.44-5.07 11.1-11.92 11.1-7.4 0-13.29-3.7-16.85-10.55l-10 9.59c7.12 10.41 15.62 15.07 27.4 15.07 16 0 27.26-10.69 27.26-26 0-12.5-5.22-18.1-22.88-24.55zM153 249.73C153 273 171.23 291 194.79 291c6.58 0 12.33-1.37 19.32-4.66v-18.26c-6.16 6.17-11.64 8.63-18.63 8.63-15.48 0-26.58-11.23-26.58-27.26 0-15.2 11.37-27.12 25.89-27.12 7.4 0 12.88 2.6 19.32 8.9V213a39.32 39.32 0 00-19-4.79c-23.33.15-42.11 18.5-42.11 41.52zM336.44 263.29l-21.1-53.15h-16.85l33.7 81.23h8.22l34.25-81.23h-16.72l-21.5 53.15zM381.64 289.31h43.7v-13.42h-28.35v-21.37h27.26V241.1h-27.26v-17.54h28.35v-13.42h-43.7v79.17zM486.44 233.56c0-14.79-10.14-23.42-27.95-23.42h-22.87v79.18h15.48v-31.79h2l21.37 31.79h19L468.63 256c11.37-2.44 17.81-10.38 17.81-22.44zm-31 13H451v-24h4.79c9.59 0 14.8 4 14.8 11.78-.04 7.99-5.25 12.24-15.11 12.24z"/><circle class="cls-2" cx="261.23" cy="250" r="42.05"/><circle class="cls-3" cx="261.23" cy="250" r="42.05"/><path class="cls-1" d="M496.3 213.15c0-1.37-1-2.19-2.6-2.19h-2.19v7h1.64v-2.74l1.92 2.74h2.05l-2.33-2.88a1.91 1.91 0 001.51-1.93zm-2.88 1h-.27v-1.78h.27c.83 0 1.24.27 1.24 1s-.41.74-1.24.74z"/><path class="cls-1" d="M494 208.36a6 6 0 000 12 6 6 0 100-12zm0 11.09a4.93 4.93 0 010-9.86 5 5 0 014.8 4.93 4.88 4.88 0 01-4.8 4.93z"/></svg>
