<svg xmlns="http://www.w3.org/2000/svg" viewBox="0 0 398 142" fill='currentColor'><path d="M180.13,88.44a1.41,1.41,0,0,0-.34-.59l-.27-.21a1.36,1.36,0,0,0-.68-.18l-.18,0a1.17,1.17,0,0,0-.52.12,1.14,1.14,0,0,0-.44.28,1.07,1.07,0,0,0-.28.44,1,1,0,0,0-.11.52l0,.36a1.51,1.51,0,0,0,.35.6L178,90a1.36,1.36,0,0,0,.68.18h.18a1.17,1.17,0,0,0,.52-.12,1,1,0,0,0,.43-.28,1,1,0,0,0,.28-.43,1,1,0,0,0,.11-.52Z"/><path d="M179.48,93.3c-.08-1.26-2.13-1.73-2.35-.32a78.05,78.05,0,0,0-.68,8.92c0,.27,0,.53,0,.8,0,1.83,2.73,1.81,2.83,0A81.9,81.9,0,0,0,179.48,93.3Z"/><path d="M187.15,82.28a147.37,147.37,0,0,0-1.8,19.22.89.89,0,0,0,0,.29c0,.3,0,.6,0,.9a1.41,1.41,0,0,0,2.82,0c.31-6.72.47-13.41,1.25-20.1C189.56,81.31,187.33,81,187.15,82.28Z"/><path d="M198,91.5a53.07,53.07,0,0,0-1,11.94h0v0h0a1.35,1.35,0,0,0,2.7,0c.19-3.86.52-7.8.5-11.66A1.14,1.14,0,0,0,198,91.5Z"/><path d="M201.36,95.1a7.49,7.49,0,0,0-3.3,0c-1.12.09-2.22.25-3.33.42-1.44.21-1.06,2.5.34,2.49,1.16,0,2.29,0,3.45-.11a6.9,6.9,0,0,0,3.13-.57A1.22,1.22,0,0,0,201.36,95.1Z"/><path d="M218,101.45a1.37,1.37,0,0,0-1-.73,1.31,1.31,0,0,0-1.21.34,3.5,3.5,0,0,1-4.24-1.3c1.69-.22,3.19-.94,3.52-2.55.58-2.94-4.12-4.71-6.11-2.95A3.59,3.59,0,0,0,207.72,97a1.19,1.19,0,0,0-.53,2.31,7.35,7.35,0,0,0,1.15.3,9.08,9.08,0,0,0,1.87,2.69c1.82,1.78,6,3.15,7.75.55A1.41,1.41,0,0,0,218,101.45ZM211.1,97c.38-.73.8-.78,1.27-.17l-.37,0a2.25,2.25,0,0,1-1.16.39C210.92,97.19,211,97.1,211.1,97Z"/><path d="M223.81,94.05a4.56,4.56,0,0,0-.51.65c0-.16-.06-.32-.1-.48-.27-1.29-2.28-1-2.28.31,0,2.87.86,5.54,1.45,8.32.4,1.85,3.12,1,2.81-.78a10.5,10.5,0,0,1,.25-4.92c.15-.47.37-1.22.95-1.33.32-.06.85.35,1.16.45a1.22,1.22,0,0,0,1.54-1.17C229.2,92.23,225.2,92.56,223.81,94.05Z"/><path d="M261,101.63c-.43-1.17-2-2.09-2.92-2.86l-.44-.36a16,16,0,0,0-1.07-5.65,1.09,1.09,0,0,0-2.1.58,19.51,19.51,0,0,1,.55,2.85l-1-.86A34.5,34.5,0,0,1,251,92.14a11,11,0,0,0,1.45-5.42,5.42,5.42,0,0,0-3.73-4.83,3.08,3.08,0,0,0-4.06,2.35c-.35,2.14.95,4.69,2,6.49.31.53.64,1,1,1.55l-.08.16c-1.25,2.63-2.34,5.59-1.44,8.5a5.85,5.85,0,0,0,5.14,4.26,6.48,6.48,0,0,0,5.68-3.8l.07.06.86.73a2.47,2.47,0,0,0,.27.32,1.19,1.19,0,0,0,.32.87C259.65,104.71,261.55,103.2,261,101.63ZM248,87.29c-.16-.41-.72-1.51-.57-1.88.85-2.16,2,.94,2,1.66a5.84,5.84,0,0,1-.46,2.28A15.07,15.07,0,0,1,248,87.29Zm4.36,14.9c-1.83.57-3.21-.93-3.54-2.61a8.21,8.21,0,0,1,.85-4.72c.6.66,1.22,1.3,1.87,1.91,1.05,1,2.16,2,3.27,2.88A3.58,3.58,0,0,1,252.35,102.19Z"/><path d="M280.67,98c-1-.92-2.14-1.68-3.2-2.53,0,0-1.06-.9-1.1-.79.33-.81,1.91-.17,2.43,0a1.19,1.19,0,0,0,1.15-2c-2-2.08-7.26-.73-6.21,2.65.55,1.8,3,3,4.37,4.11,1,.82,1.35,1.9-.22,2.26-1.76.4-2.06-.68-2.9-1.81a1.28,1.28,0,0,0-2.18,0c-1,1.83.43,3.81,2.16,4.55a5.46,5.46,0,0,0,6.17-1.39A3.53,3.53,0,0,0,280.67,98Z"/><path d="M292.75,96.54c-.91-2.15-2.91-4.68-5.34-4.92a1.44,1.44,0,0,0-1.38,1,9,9,0,0,0-.15,1.36.91.91,0,0,0,0,.17,1.51,1.51,0,0,0-.15.28c-.94,2.49-1.61,5.47.41,7.64a3.9,3.9,0,0,0,5.57.37A5.21,5.21,0,0,0,292.75,96.54Zm-2.62,3.31c-.6,1.23-1.9.85-2.45-.23-.7-1.37-.11-3.15.28-4.52a2.07,2.07,0,0,0,0-.22C289.5,95.93,290.85,98.39,290.13,99.85Z"/><path d="M303.7,93.93c-1.72-1.17-4.23.17-5.28,1.67l-.13.2c-.19-.49-.38-1-.59-1.47-.54-1.31-2.63-.84-2.19.6.78,2.58,1.84,5.11,2.51,7.71.33,1.29,2.61,1.48,2.81,0s-.48-3-.34-4.44c.16-1.7,1.67-1.54,2.89-1.89A1.32,1.32,0,0,0,303.7,93.93Z"/><path d="M314.5,102.3a47,47,0,0,1-.62-9.91c0-1.18-1.79-1.77-2.32-.63a5.45,5.45,0,0,1-.39.76,1,1,0,0,0-.08,1,21,21,0,0,0,.38,9.3C311.55,104.63,314.93,104.72,314.5,102.3Z"/><path d="M316.21,95.85c-1.29-.62-2.74-.24-4.13-.11s-2.71.11-3.79,1a1.14,1.14,0,0,0,.23,1.78c1.16.64,2.53.35,3.81.25s2.83,0,3.88-.71A1.28,1.28,0,0,0,316.21,95.85Z"/><path d="M338,80.59c.07-1.21-1.91-1.51-2.13-.29a102.38,102.38,0,0,0-1.29,11.86c-.12,1.94-.2,3.87-.23,5.81a22.85,22.85,0,0,0,.25,6.13,1.23,1.23,0,0,0,2.35,0,26,26,0,0,0,.19-5.3c0-2.07.05-4.15.11-6.22C337.41,88.57,337.8,84.59,338,80.59Z"/><path d="M352.74,102.48c-2.28-.36-4.34-.8-5.75-2.59a4.65,4.65,0,0,0,2.51-2.43c1.23-2.75-1.36-6.12-4.3-4.5-1.84,1-2.2,3-1.82,5a4.45,4.45,0,0,1-.61-.17c-1.16-.44-2,1.52-.85,2a6.62,6.62,0,0,0,2.32.55c.12.22.24.44.37.64,1.68,2.52,5,4.57,8.13,3.91A1.25,1.25,0,0,0,352.74,102.48Zm-6.92-6.61c1.46-.25,1.9,0,1.31.72a1.91,1.91,0,0,1-1.21,1.25,4.26,4.26,0,0,1-.16-.79A2.62,2.62,0,0,1,345.82,95.87Z"/><path d="M368.52,100.92a32.94,32.94,0,0,1-2.29-2.72c-.21-.29-.62-.75-1-1.24a14.87,14.87,0,0,0-.59-2.06,1.49,1.49,0,0,0-2.07-.89.83.83,0,0,0-.16-.09c-5.1-2.3-8.62,4.9-4.73,8.34a4.84,4.84,0,0,0,6.2.23,4.54,4.54,0,0,0,1.05-1.34c.49.61,1,1.2,1.54,1.78h0C367.66,104.16,369.85,102.36,368.52,100.92Zm-5.89-2a1.82,1.82,0,0,1-2.87,1.49,2.43,2.43,0,0,1-.85-3.29c.66-1.07,1.69-1.1,2.8-1a5.74,5.74,0,0,0,.83,1.76l0,.06A3.52,3.52,0,0,1,362.63,98.91Z"/><path d="M382.62,99.3a48,48,0,0,0-.92-8.68c-.33-1.87-.69-3.75-.91-5.65-.14-1.24-.66-3.64-.29-5a.93.93,0,0,0,.16-.18l.07-.1a1.1,1.1,0,0,0-.17-1.34l-.11-.11a1.15,1.15,0,0,0-1.77.23c-.82,1.18-.67,3.27-.67,4.64a45.28,45.28,0,0,0,.5,6c.21,1.59.44,3.17.62,4.75l-.19-.16c-2.2-1.65-5.93-2.67-7.19.68-1,2.6.59,5.47,2.71,7,1.38,1,4,1.88,5.84,1.32a1.61,1.61,0,0,0,2.19-1A6.51,6.51,0,0,0,382.62,99.3Zm-4.49.14a4.34,4.34,0,0,1-3-2.08c-.32-.58-.64-1.25-.09-1.71s1.52.36,2.06.78a5.65,5.65,0,0,1,2.27,3A4.77,4.77,0,0,1,378.13,99.44Z"/><path d="M393.49,99.28a17.4,17.4,0,0,0-2.06-2.23A10.53,10.53,0,0,1,390,95.53l-.49-.51a.88.88,0,0,1,.57-.29,1.1,1.1,0,0,0,1,.58A1.64,1.64,0,0,0,392.69,94a1.39,1.39,0,0,0-.36-1.36c-2.19-1.91-7.17-.16-5.87,3.19.62,1.59,2.39,2.94,3.51,4.18.27.3.42.57.65.67a5,5,0,0,1-.89-.17c-.92-.28-1.27-1-1.84-1.71a1.45,1.45,0,0,0-2.41.64c-.93,3.71,4.68,5.74,7.43,4.14C394.55,102.61,394.45,100.67,393.49,99.28Z"/><path d="M168.7,127.07c-.45-2-2.21-4.59-4.34-5.29a1.35,1.35,0,0,0-.84-.65c-3.16-.8-4.86,3.44-4.71,5.94.17,2.89,2.26,6.12,5.41,6.23S169.33,130,168.7,127.07Zm-6.08,2a4.26,4.26,0,0,1-.46-3.87,1.76,1.76,0,0,1,.6-.78,5.33,5.33,0,0,1,2.87,3.83C165.78,130.35,163.73,130.59,162.62,129Z"/><path d="M186.34,131.73a33.89,33.89,0,0,0-3-7.16c-.86-1.57-2-3.65-4.18-3.25-1.49.28-2.78,1.74-3.6,3.11,0-.65-.11-1.29-.16-1.94a1.11,1.11,0,0,0-2.22,0,38,38,0,0,0,.93,10.58,1.39,1.39,0,0,0,2.51.33c1.27-2.57-.26-6.32,2.22-8.35,1.36-1.12,2.06,1.24,2.6,2.34a30,30,0,0,1,1.46,3.52,1,1,0,0,0,.09,1,4.34,4.34,0,0,1,.6,1C184.39,134.4,186.79,133.33,186.34,131.73Z"/><path d="M205.75,126.84c-.11-1.77-.41-3.61.11-5.32.46-1.48-1.74-2-2.27-.63-1.27,3.3-.49,7.65-.36,11.11.06,1.79,2.88,1.8,2.79,0S205.85,128.56,205.75,126.84Z"/><path d="M208.6,124.62c-2.69-.77-6.4-.26-9.13.19-1.42.23-1.08,2.53.33,2.49s3-.18,4.56-.21a22.2,22.2,0,0,0,4.24-.17A1.2,1.2,0,0,0,208.6,124.62Z"/><path d="M218.58,121.86c-1.6-.35-2.74.58-3.55,2a91.81,91.81,0,0,1,1-15.1c.19-1.35-1.79-2-2.09-.58a68.8,68.8,0,0,0-.78,23.77h0c0,.12,0,.24,0,.36.18,1.3,2.41,1.28,2.61,0s1-7.53,2.42-7.59c.84,0,2.16,2.23,2.49,2.86a9.23,9.23,0,0,1,1,3.45,1.41,1.41,0,0,0,0,1l.24.57c.6,1.38,2.5.51,2.59-.7C224.8,128.37,222.49,122.73,218.58,121.86Z"/><path d="M238.24,129.54c-1.09-.36-2.24-.24-3.34-.59a7.45,7.45,0,0,1-2.48-1.37,2.9,2.9,0,0,0,2.14-3.19,3.36,3.36,0,0,0-5.53-2.24,3.48,3.48,0,0,0-1,3.75l-.33,0a1.16,1.16,0,0,0,.31,2.27l1.1-.08a8.1,8.1,0,0,0,1,1.16c2,1.92,5.72,3.67,8.45,2.43C239.53,131.27,239.14,129.83,238.24,129.54Zm-7.15-5c.3-.53.53-.51.71.06-.05.37-.5.63-1.09.82A.62.62,0,0,1,231.09,124.57Z"/><path d="M256.52,129.42a1.19,1.19,0,0,0-.16-.36,85.14,85.14,0,0,1-.86-17.55c.08-1.45-2.06-1.39-2.21,0a70.71,70.71,0,0,0,.73,19.54c.22,1.24,2.37,1.28,2.55,0A3.89,3.89,0,0,0,256.52,129.42Z"/><path d="M263.35,113.18c-.66-1.89-2.11-4.88-4.25-5.45-2.71-.73-4,2.07-5.74,3.44-1,.81.34,2.61,1.42,1.83.83-.6,2.55-3.12,3.66-2.88s2.17,3.06,2.72,4C261.83,115.23,263.8,114.5,263.35,113.18Z"/><path d="M260.83,119.19a22.33,22.33,0,0,0-5.72,0c-1.85.07-3.75,0-5.46.73-1,.42-.52,1.71.26,2,1.94.73,4.39.37,6.43.32,1.74,0,3.73.33,5-1A1.22,1.22,0,0,0,260.83,119.19Z"/><path d="M272.37,124.88c-.17-1.79-.31-3.57-.42-5.36-.22-3.59-.27-7.17-.49-10.76a1.1,1.1,0,0,0-2.2,0,88.59,88.59,0,0,0,.12,11.17c.19,3.36,0,7.41,1.14,10.6a1.16,1.16,0,0,0,2.26-.3A30.14,30.14,0,0,0,272.37,124.88Z"/><path d="M288.55,132.35c-.55-3.56-1.87-7.1-2.84-10.55-.43-1.53-3.08-1.3-2.87.39,0,.12,0,.25.05.38h0v0c.31,2,1.17,5.63-1,6.59-2.57,1.16-3.58-4.36-3.33-5.87a1.16,1.16,0,0,0-2.23-.62c-1.34,3.37.74,9.78,5.1,9.71a4.64,4.64,0,0,0,3.57-2,12,12,0,0,1,.58,4.13,4.47,4.47,0,0,1-3.2,4c-1,.36-3.26.8-4.14-.05a1.39,1.39,0,0,0-2.15.28c-1.27,2.39,1.49,3.52,3.43,3.59a9.5,9.5,0,0,0,7-2.64A8.26,8.26,0,0,0,288.55,132.35Z"/><path d="M164.2,80.56a75.36,75.36,0,0,0-1.65,11.79c-.19,1.92-.33,3.84-.45,5.77s-.56,3.84.34,5.52a1.16,1.16,0,0,0,2,0c.89-1.41.67-3.07.75-4.7q.15-3.09.36-6.18c.25-3.94.88-8,.91-11.9A1.15,1.15,0,0,0,164.2,80.56Z"/><path d="M175.14,79.81c-1.51-.83-3.45-.79-5.14-.76s-3.68,0-5.07,1a1.15,1.15,0,0,0,.27,2.07c1.54.42,3.21,0,4.8,0s3.25.38,4.84.08A1.28,1.28,0,0,0,175.14,79.81Z"/><path d="M174.09,90a1.21,1.21,0,0,0-.63-.18,13.16,13.16,0,0,0-3.36.16c-.88.1-2.64.69-3.46.34a1.2,1.2,0,0,0-1.74.7c-.64,2.57,2.58,2.38,4.12,2.23,1.71-.17,5.42.16,5.72-2.11A1.29,1.29,0,0,0,174.09,90Z"/><path d="M144.81,96.37c-3-3.7-7.84-6.32-11.81-8.86-4.33-2.78-8.74-5.46-13.12-8.18L92.13,62.13Q64.8,45.2,37.45,28.27C27,21.79,16.57,15.07,5.88,8.94a1.33,1.33,0,0,0-1.35,2.3c17.75,12,36.25,23,54.41,34.33Q86.41,62.76,113.88,80c5,3.12,10,6.21,15,9.36,2.28,1.44,4.54,2.9,6.76,4.42,2.44,1.68,4.72,3.71,7.36,5.06A1.55,1.55,0,0,0,144.81,96.37Z"/><path d="M8.52,18.57c-.22-.84-.49-1.64-.76-2.46a1.71,1.71,0,0,0-.28-.5A57.32,57.32,0,0,1,5.71,7.86c-.24-1.42-2.6-1.09-2.52.34A36.15,36.15,0,0,0,5.8,19.32C6.45,21,9,20.37,8.52,18.57Z"/><path d="M17.53,8.47l-.15-.17A1.39,1.39,0,0,0,16,7.93L15.77,8a1.3,1.3,0,0,0-.71.5c-.64,0-1.83-.15-1.93-.16A28.93,28.93,0,0,1,10,8C8.32,7.69,6.65,7.19,5,6.75,3.64,6.41,2.68,8.41,4,9a25.23,25.23,0,0,0,7.39,2.05c1.8.24,4.72.94,6.14-.54A1.5,1.5,0,0,0,17.53,8.47Z"/><path d="M148,69.65c-4.1-3-9-5-13.35-7.57a141.86,141.86,0,0,1-12.53-8q-2.17-1.59-4.26-3.31c3.43-1.56,5.12-5.49,4.1-9.52-1.24-4.86-6.41-8.78-10.87-10.59-4.67-1.88-10.35.29-9.32,6.14.52,3,2.39,5.77,4.58,8.27C97,40.09,87.86,34.56,79,28.77c-10.53-6.88-20.31-14.64-30.48-22-1.16-.85-2.59,1-1.53,2C57.14,18,68.87,26,80.37,33.51q9,5.88,18.34,11.22c4.17,2.38,8.94,5.84,13.92,6.55a104.79,104.79,0,0,0,15.11,11.4c5.9,3.73,12.26,7.94,18.82,10.35C148.67,73.81,149.57,70.79,148,69.65Zm-39.55-36c4,.85,9.7,5.15,10.16,9.44.38,3.64-1.68,4.68-4.24,4.59q-1.83-1.7-3.53-3.52a30.85,30.85,0,0,1-4.48-5.6C105.09,36.28,104.8,32.84,108.44,33.61Z"/><path d="M51.26,12.77a1.21,1.21,0,0,0-.42-.47l-.36-1.17a23.33,23.33,0,0,0-2-5.66,1.28,1.28,0,0,0-2.37.64A23.31,23.31,0,0,0,47.5,12c.63,2.1,1.25,4.19,1.9,6.28a1.56,1.56,0,0,0,3.06-.41A10.77,10.77,0,0,0,51.26,12.77Z"/><path d="M61.34,6.89C60,5.26,57.79,6,56,5.93a25.57,25.57,0,0,1-8-1.84C46.33,3.5,45.35,6,46.8,6.84A18.67,18.67,0,0,0,52.92,9,22.35,22.35,0,0,0,56,9.34c.3,0,1.47-.15,2.25-.15a.86.86,0,0,0,.13.14,2.38,2.38,0,0,0,1.72.67,1.63,1.63,0,0,0,1.42-.81L61.61,9A1.8,1.8,0,0,0,61.34,6.89Z"/></svg>
