<svg xmlns="http://www.w3.org/2000/svg" viewBox="0 0 256 256"><defs><style>.cls-1{fill:#5d55fa;}.cls-2,.cls-3{fill:none;stroke:#5d55fa;stroke-linecap:round;stroke-miterlimit:10;}.cls-2{stroke-width:12px;}.cls-3{stroke-width:8px;}</style></defs><path class="cls-1" d="M103.46,107.44V197.9H13V107.44h90.46m7.63-12H5.37A4.37,4.37,0,0,0,1,99.81V205.53a4.37,4.37,0,0,0,4.37,4.37H111.09a4.37,4.37,0,0,0,4.37-4.37V99.81a4.37,4.37,0,0,0-4.37-4.37Z"/><path class="cls-1" d="M243,107.44V197.9H152.54V107.44H243m7.63-12H144.91a4.37,4.37,0,0,0-4.37,4.37V205.53a4.37,4.37,0,0,0,4.37,4.37H250.63a4.37,4.37,0,0,0,4.37-4.37V99.81a4.37,4.37,0,0,0-4.37-4.37Z"/><rect class="cls-1" x="23.89" y="132.5" width="32.7" height="4.36" rx="1.5" transform="translate(-83.45 67.9) rotate(-45)"/><rect class="cls-1" x="22.1" y="139.31" width="53.19" height="4.36" rx="1.5" transform="translate(-85.79 75.87) rotate(-45)"/><path class="cls-2" d="M8.71,100.89l53.4-50.44A15.92,15.92,0,0,1,75,46.22l27.44,3.43"/><path class="cls-2" d="M247.29,100.89l-53.4-50.44A15.92,15.92,0,0,0,181,46.22l-27.44,3.43"/><path class="cls-3" d="M108.92,157.57c-2.36-14,8.29-25.93,19.63-26.16s21.23,11.09,19.62,25.07"/></svg>
