<svg xmlns="http://www.w3.org/2000/svg" viewBox="0 0 418 258" fill='currentColor'><path d="M22.05,24.18c-2.37-2.4-4.77-4.75-7.14-7.14-1.07-1.08-3-2.67-3.17-4.28-.18-1.44,1-2.68,2-3.38s3.53-2,4.44-.64c1.14,1.72,4.15.68,3.48-1.47C20,1.73,13.22,3.91,10,6.83c-4.78,4.31-1.9,9.49,1.85,13.28,2.5,2.54,5,5,7.53,7.58,1.64,1.7,8,8.15,2.79,9.17C16,38.07,10.09,33.43,6,29.41a2,2,0,0,0-3.1,2.4c2.4,4.8,7.09,7.89,12.19,9.33,4.2,1.17,10.48,1.6,13-2.88C30.9,33.06,25.37,27.56,22.05,24.18Z"/><path d="M50.22,38c-.86-1.61-2.5-2.66-3.6-4.11q-.42-.55-.78-1.14c-.14-2.11-.76-4.12-2.19-5-1.88-2.68-6.27-1.44-8,1.23a8.61,8.61,0,0,0,.94,10.15c2.47,2.78,6.49,3.21,8.24-.14a7.46,7.46,0,0,0,3.21,1.86A1.94,1.94,0,0,0,50.22,38Zm-9.11-1.83c-.28.59-.08.59-.73.34-.46-.18-.81-.88-1-1.29-.62-1.23-.56-3.73.59-4.35a28.71,28.71,0,0,0,1.48,3.37A5.38,5.38,0,0,1,41.11,36.18Z"/><path d="M62.09,27.43c-.21-3.13-5.15-3.12-4.88,0-.15,1.61-.13,3.23-.13,4.85a42.27,42.27,0,0,0-2.81-5.23,1.75,1.75,0,0,0-3.19,1.35c.7,4.17,3.39,8.48,5.49,12.09a2.31,2.31,0,0,0,3.94,0A10.45,10.45,0,0,0,62,34.72,63.34,63.34,0,0,0,62.09,27.43Z"/><path d="M77.84,38.74c-1.46.62-2.55-.57-3.27-1.79a5.91,5.91,0,0,0,4.27-3.05c1.8-3.68-3.55-8.13-7-6.67-2.27.94-2.77,3.49-2.52,6a17.71,17.71,0,0,1-2.21-.14c-2-.25-2.33,2.95-.46,3.45a20.46,20.46,0,0,0,3.61.62c.15.37.29.73.45,1,1.61,3.25,6.84,7.47,9.61,2.93C81.3,39.5,79.35,38.1,77.84,38.74ZM73.3,31.53c.52-.91,1.62.1,1.22.86-.13.26-.81.42-1.39.52A2.41,2.41,0,0,1,73.3,31.53Z"/><path d="M107,39.85l-.2-.47a1,1,0,0,0,0-.1c0-10.6-.22-21.22-.5-31.82a1.71,1.71,0,0,0-3.42,0c-.36,11.07-.68,22.16-.69,33.23A2.33,2.33,0,0,0,106,42.32l.35-.38A2.12,2.12,0,0,0,107,39.85Z"/><path d="M126.34,39.09c-2.68-.19-5.92-.13-8-1.78a5.45,5.45,0,0,0,3.86-2.78c1.57-3.45-3.08-8.56-6.64-6.83-2.21,1.08-3,3.43-2.85,5.79a1.67,1.67,0,0,0-1.45,3,6.8,6.8,0,0,0,2.5,1,6.89,6.89,0,0,0,.4.71c2.58,3.93,8.25,5.43,12.66,4.41C128.83,42.08,128.23,39.22,126.34,39.09Zm-9.87-6.94.54-1a2.31,2.31,0,0,1,1.38,1.27c0,.93-.91,1.35-2,1.49A2.93,2.93,0,0,1,116.47,32.15Z"/><path d="M146.93,38a31.52,31.52,0,0,1-4.65-6.22,1.85,1.85,0,0,0,.09-2.54c-2-2.41-6-2.19-8.31-.24a8,8,0,0,0-2,9c1.25,2.93,4.5,4.67,7.45,2.91a5.73,5.73,0,0,0,2.23-2.4A20.39,20.39,0,0,0,144,41,2.09,2.09,0,0,0,146.93,38Zm-8.88-1.4c-1.18,1.89-2.52.16-2.65-1.32a3.21,3.21,0,0,1,2.26-3.68C138.08,33.05,138.93,35.23,138.05,36.62Z"/><path d="M169,40a209,209,0,0,1-3.45-29.61,1.74,1.74,0,0,0-3.47,0c0,6.65.19,13.29.81,19.9-3.12-1.75-7-1.51-9.4,1.34a6.17,6.17,0,0,0,.87,8.87,9.92,9.92,0,0,0,10.23,1.44C165.83,44.09,169.52,42.75,169,40ZM159,37.36c-2.8-.88-2.77-4.42.58-3.63a5.11,5.11,0,0,1,3.3,3,1.81,1.81,0,0,0-1.07.71A5.48,5.48,0,0,1,159,37.36Z"/><path d="M182.77,33.65c-.87-.72-3.46-1.63-3.86-2.63-.51-1.27,3.23-1.48,4.1-1,1.71.95,3.76-1.44,2.16-2.81-3-2.58-9.58-1.48-10.49,2.92-.52,2.55,1.75,4.27,3.62,5.48.41.27,3.38,1.93,2.75,2.74s-2.9-.28-3.13-1c-.52-1.71-3.27-1.91-3.68,0-1.33,6.11,9.14,8.32,10.83,2.74A6.21,6.21,0,0,0,182.77,33.65Z"/><path d="M215.64,35.19A9.45,9.45,0,0,1,213,36.94c-1.42.33-2-1-2.33-2.26A7.38,7.38,0,0,1,212,28.32c1.2-1.64-1.47-3.69-2.82-2.17a10.58,10.58,0,0,0-1.49,12.21,5.34,5.34,0,0,0,5.15,3c2.41-.21,3.92-1.86,5.2-3.73C219,36.18,217,34.14,215.64,35.19Z"/><path d="M219.78,27.25a1.69,1.69,0,0,0-3.26-.9c-1.61,4.1-.47,8,.1,12.18.35,2.56,0,5-2.48,6.22-1.59.79-3.17.22-4.78.74a1.93,1.93,0,0,0-.84,3.19c3,3.33,9.08.15,11.06-3C223.17,40.07,218.49,33.32,219.78,27.25Z"/><path d="M236.44,33.45c-.65-2.66-2.94-7.43-6.26-6.63a1.61,1.61,0,0,0-1.11.88,1.61,1.61,0,0,0-1.79.76c-1.89,3-2.72,6.76-1.3,10.1,1.21,2.84,4.08,4.32,7,3C236.15,40.22,237.22,36.63,236.44,33.45Zm-5.17,4.08c-1.42.61-1.85-1.08-2-2.17a8.23,8.23,0,0,1,.82-4.9,14.47,14.47,0,0,1,1.53,2.74C232.14,34.33,232.88,36.84,231.27,37.53Z"/><path d="M251.72,28.94a1.87,1.87,0,0,0-3.56,0,35.77,35.77,0,0,0-1,4.59c-.15.65-.82,3.7-1.37,3.75-.85.07-1.67-2.58-1.8-3.16a8.33,8.33,0,0,1,.31-4.45c.59-1.89-2.3-3.14-3.22-1.36-2.22,4.25-1.72,12.15,4,13.56,2.94.72,4.68-1.48,5.71-3.89C251.89,35.26,252.92,31.81,251.72,28.94Z"/><path d="M271.62,6.38a79.55,79.55,0,0,0-3.43,33.7c-.7,3.19,5.48,3.84,5.07.27a95.12,95.12,0,0,1,1.71-33A1.74,1.74,0,0,0,271.62,6.38Z"/><path d="M284.69,33.06c0-2.17,0-4.35,0-6.52,0-1.93-3-2.43-3.44-.47-.79,4-2.15,9.79-.19,13.51.79,1.51,2.81.93,3.33-.43C285.12,37.28,284.69,35.05,284.69,33.06Z"/><path d="M285.53,18a1.37,1.37,0,0,0-.38-.6l-.37-.29a1.91,1.91,0,0,0-.93-.25l-.49.07a1.74,1.74,0,0,0-.82.47l-.13.14-.07.07,0,0a1.39,1.39,0,0,0-.15.19,1,1,0,0,0-.15.21l-.19.44a1.29,1.29,0,0,0,0,.73.93.93,0,0,0,.12.46,1.37,1.37,0,0,0,.38.59l.37.29.44.18a1.4,1.4,0,0,0,.73,0,1.48,1.48,0,0,0,.68-.22h0l.38-.29,0,0,.07-.07.14-.14a1.28,1.28,0,0,0,.38-.59,1.35,1.35,0,0,0,.16-.71A1.33,1.33,0,0,0,285.53,18Z"/><path d="M297.21,25.51c0-5.44.13-10.89-.1-16.32a1.73,1.73,0,0,0-3.46,0c-.65,5.41-.82,10.88-1,16.32s-.69,11-.12,16.33a2.33,2.33,0,0,0,4.65,0C297.69,36.48,297.24,30.89,297.21,25.51Z"/><path d="M303.55,26a22.37,22.37,0,0,0-4.08,2,17.05,17.05,0,0,0-4.19,3A2.22,2.22,0,0,0,298,34.51c1.38-.61,2.62-1.6,4-2.33s2.78-1.29,4.07-2.09C309,28.26,305.6,24.63,303.55,26Z"/><path d="M302.76,36.4a43.18,43.18,0,0,0-3.69-3.72c-1.41-1.26-3.92.38-2.76,2.13A42.59,42.59,0,0,0,299,38.43c.6.74,1.66,1.73,2.23,2.52a2,2,0,0,0,1.3,1.4,2.49,2.49,0,0,0,1.3,0c.94-.13,1.41-1.15,1.5-2C305.47,38.83,303.71,37.47,302.76,36.4Z"/><path d="M319.87,37.64c-1.65.42-2.71.62-3.63-.9a6.51,6.51,0,0,0,5-2.21c2.7-3.53-1.58-8.84-5.58-8.11-2.94.53-4.16,2.89-4.4,5.54-.86-.19-1.71-.42-2.57-.65a1.75,1.75,0,0,0-1.35,3.19,14.49,14.49,0,0,0,4.31,1.77,11.71,11.71,0,0,0,.59,1.76,7,7,0,0,0,4.33,4.19c1.94.57,4.52.19,5.42-1.84A1.89,1.89,0,0,0,319.87,37.64Zm-2.64-6.94c1.43,1.37-.72,1.55-2.05,1.59C315.21,30.87,315.56,29.1,317.23,30.7Z"/><path d="M18,76.26c-1.26-4-5.08-5.85-8.93-6.49A1.74,1.74,0,0,0,7,69c-4,1.28-4.77,6.64-3.78,10.2,1.24,4.5,5.44,6.29,9.79,5.59C17.11,84.12,19.19,80.16,18,76.26Zm-5.22,3.6a3.69,3.69,0,0,1-5.08-1.44,6.32,6.32,0,0,1-.14-4.84C9.6,74.64,15.87,77.7,12.75,79.86Z"/><path d="M31.49,71.76c-2.55-1.3-4.94.14-6.43,2.23a14.77,14.77,0,0,1-.1-2.11c.05-1.89-3.07-2.41-3.39-.46-.69,4.27.69,7.84,2.29,11.61a11.17,11.17,0,0,0,.61,1.43c.92,2.17,4.76.59,3.85-1.62a7.18,7.18,0,0,1-.64-4.1c.14-.77,1-3.45,2.19-3.13C32.11,76.19,33.67,72.88,31.49,71.76Z"/><path d="M68.46,81.19C65.94,79,63,77.54,61.27,74.77a22,22,0,0,1-1-2.17,2.21,2.21,0,0,0-.39-.68c0-.09-.06-.18-.11-.27-1.67-3.26-5.93-1.69-7.64.69a8.4,8.4,0,0,0,.38,9.89c2.11,2.67,6.14,4,9,1.51a4.89,4.89,0,0,0,1.23-1.58,18.62,18.62,0,0,0,3.4,2C68,85,70.23,82.73,68.46,81.19Zm-12-1.1a4,4,0,0,1-1.42-3,3.79,3.79,0,0,1,.4-1.9,1.2,1.2,0,0,0,.69-1.62,1.91,1.91,0,0,0,1.07,1.15,11.67,11.67,0,0,0,1.29,2.89.69.69,0,0,1,0,.13C58.8,79.42,58.45,81.69,56.46,80.09Z"/><path d="M77.47,70.66a6.33,6.33,0,0,0-6.22,2.78,2.61,2.61,0,0,1-.06-.27c-.48-2.24-3.75-1.26-3.39.93a32.62,32.62,0,0,0,2.26,7.65A11.91,11.91,0,0,0,71.61,85c1.32,2.53,4.86.31,3.76-2.19-.75-1.69-1.62-3.54-1.11-5.42s1.66-2.17,3.21-2.68C79.31,74.12,79.65,71.1,77.47,70.66Z"/><path d="M93.58,80.22c-1.44,0-2.31,1.06-3.71,1.16a4.39,4.39,0,0,1-3.51-1.45c-1.36-1.53-.88-4.36,1-4.94a1.89,1.89,0,0,0,3.2-.76c1.3-3.86-3.48-4.48-6-3A7.86,7.86,0,0,0,81,79.33a8.86,8.86,0,0,0,6.43,6.52c2.83.76,8.12.12,8.12-3.68A2,2,0,0,0,93.58,80.22Z"/><path d="M118.3,83.64c-.93-4.31-1.69-12.81-7.35-13.68-2.11-.33-3.31.79-4.19,2.34a162.86,162.86,0,0,0-3.26-19.58c-.51-2.15-3.57-1.19-3.24.89a252.68,252.68,0,0,1,3.25,30.06,2.12,2.12,0,0,0,4.23,0A22.33,22.33,0,0,1,109,78c.25-.73.5-1.48.82-2.18.5-1.1.64-2.37,1.72-.58,1.58,2.6,1.65,6.73,2.3,9.63S119,86.57,118.3,83.64Z"/><path d="M127.55,81.88c-.42-2.82-1.14-5.59-1.7-8.38-.46-2.31-3.77-1.28-3.46,1,.43,3,.63,6,1.27,8.9.49,2.21,4.22,1.77,4-.55C127.65,82.49,127.61,82.19,127.55,81.88Z"/><path d="M126,65.56a2,2,0,0,0-.53-.91l-.08-.08-.42-.32a1.53,1.53,0,0,0-.77-.25,1.09,1.09,0,0,0-.36,0,2.07,2.07,0,0,0-.61.05,2,2,0,0,0-.83.48,1.93,1.93,0,0,0-.48.83,2.17,2.17,0,0,0,0,.62,1.88,1.88,0,0,0,.07.62,2,2,0,0,0,.53.91.6.6,0,0,0,.08.08,1.52,1.52,0,0,0,.66.43,1.57,1.57,0,0,0,.8.18,1.59,1.59,0,0,0,.8-.18,1.58,1.58,0,0,0,.66-.43l.32-.42a2,2,0,0,0,.29-1Z"/><path d="M142,70.42c-.27-1.64-2.7-1.78-3.45-.45-1,1.82-1.15,4-1.6,6.07-.15.66-.31,1.32-.46,2a44.9,44.9,0,0,1-3-6c-.82-2-3.81-1.29-3.29.9a31,31,0,0,0,5.34,11.28,2.18,2.18,0,0,0,3.92-.52c.67-2.29,1.29-4.59,1.8-6.93C141.71,74.66,142.34,72.57,142,70.42Z"/><path d="M156.64,80.36c-1.59-.81-3.16-1.09-4.39-2a4.05,4.05,0,0,0,2.73-3c.63-3.23-3.36-6.92-6.42-5.14a4.88,4.88,0,0,0-2.37,5c-1.92-.08-2.27,2.92-.41,3.4a11,11,0,0,0,1.58.28c1.86,3.47,5.54,6.25,8.82,5C157.6,83.33,158.25,81.18,156.64,80.36Zm-6.46-6.29.12-.56a2.05,2.05,0,0,0,.73.84c0,.24-.38.41-.87.53A1.69,1.69,0,0,1,150.18,74.07Z"/><path d="M181.84,69.12a44,44,0,0,0-1.11,15.17c.35,2.93,4.36,2.61,4.36,0h0a90.18,90.18,0,0,1,.2-14.7C185.52,67.61,182.29,67.21,181.84,69.12Z"/><path d="M186.13,74.78c-2.67-.92-5.9-.32-8.47.63-2.11.78-1.31,4,1,3.43s4.64-.43,7-.6A1.77,1.77,0,0,0,186.13,74.78Z"/><path d="M203.75,71.14a4.85,4.85,0,0,0-4.3,1.8c.15-7.23,0-14.47,1.49-21.65a1.69,1.69,0,0,0-3.26-.89c-4.16,10.31-1.76,21.95-3.51,32.72a2.32,2.32,0,0,0,4.48,1.23c.47-1.33,2.34-9.71,4.65-9.16.75.18,1.55,3.55,1.76,4.31.48,1.66.59,3.4,1.19,5s2.95,1.81,3.38,0C210.53,80.77,208.27,71.94,203.75,71.14Z"/><path d="M225.56,80.43a5.5,5.5,0,0,1-4.62-1,6.33,6.33,0,0,0,4.5-3c2.17-3.83-1.79-8.47-5.81-6.17a7.47,7.47,0,0,0-3.43,4.92c-.36-.12-.72-.25-1-.39-2-.81-2.93,2.19-1.37,3.25a8.63,8.63,0,0,0,2.53,1.17,6.57,6.57,0,0,0,.5,1.27c1.81,3.53,6.63,5.31,10.16,3.32C228.84,82.7,227.52,80,225.56,80.43Zm-4.3-6.55.64.45a2,2,0,0,1-1.29,1c-.14.05-.28.08-.42.12C220.4,74.84,220.79,74,221.26,73.88Z"/><path d="M248.3,83.24c.23-3.85-1.58-10.56-5.5-11.9-2.24-.76-4,1.09-5.15,3.38-1.24-2.15-2.89-3.9-4.9-3.39a4.39,4.39,0,0,0-2.9,2.69,1.73,1.73,0,0,0-1.69,1.66,16.7,16.7,0,0,0,.79,6.91c.7,2.18,4.16,1.88,4.11-.56,0-1-.05-2,0-2.92,0,.08.27-1.36.53-2.41q.34.51.66,1a19.93,19.93,0,0,1,1.59,3.56c.62,1.79,3.78,2.28,4.14,0,.16-1,.75-4,1.76-5.31,1.63,2,1.85,5.55,2,7.81a2.28,2.28,0,0,0,3.84,1.59l.18-.16A2.07,2.07,0,0,0,248.3,83.24Z"/><path d="M275.28,49.82h0c-1.36,5.34-1.6,11.17-2.14,16.65q-.89,8.72-1.23,17.47h0c0,2.82,4.59,3.25,4.73,0q.35-8.43.87-16.85c.35-5.55,1.32-11.24,1.26-16.79A1.78,1.78,0,0,0,275.28,49.82Z"/><path d="M291.46,60.68a30.12,30.12,0,0,0-2.62-7.89A10.87,10.87,0,0,0,283.61,47c-4-1.82-10.07.57-8.86,5.71a1.82,1.82,0,0,0,3.48,0c1.18-4.53,5.13-.85,6.25,1.67s1.41,5.74,3.58,7.69C289.19,63.11,291.69,62.53,291.46,60.68Z"/><path d="M284.92,63.25c-2.37-.85-5.18-.22-7.64,0q-3,.3-5.89.82a1.94,1.94,0,0,0-1.63.14l-.21.13a2,2,0,0,0-.41,3.16c1.63,1.76,5.05.66,7.13.47,3-.28,6.39,0,9.1-1.3C287,65.93,286.31,63.75,284.92,63.25Z"/><path d="M303,76.91a12.85,12.85,0,0,0-7.33-6.23,2,2,0,0,0-1.15-.28l-.52-.08a1.8,1.8,0,0,0-1.79,1.74,7.92,7.92,0,0,0-1.5,8.26,7.08,7.08,0,0,0,8.11,4.31C302.23,83.8,304.82,80.28,303,76.91Zm-5.1,3.46a2.78,2.78,0,0,1-3.61-1.84,4,4,0,0,1,.46-3.69C297.19,76.61,300.4,79.31,297.93,80.37Z"/><path d="M318.68,73a5.8,5.8,0,0,0-8.79-.64l-.26.33v0c-.58-2.11-3.64-1.21-3.24.89.63,3.28,1.4,6.56,1.9,9.86.36,2.42,3.92,1.65,4.05-.54s-.25-4.29.18-6.3c.59-2.78,2.72-.87,4.61-.83A1.82,1.82,0,0,0,318.68,73Z"/><path d="M343.39,49.76c-.78,5.66-1.24,11.38-1.73,17.07-.47,5.51-1.7,11.65-1,17.13.27,2,3.21,1.66,3.7,0,1.49-5.08,1.13-11.21,1.48-16.49.38-5.74.79-11.51.85-17.26C346.74,48.36,343.66,47.82,343.39,49.76Z"/><path d="M366,81.1c-.42-2.74-2.44-5.54-3.5-8.11a2.22,2.22,0,0,0-.82-1c-1.39-2.28-4.83-2.11-7-.76a7.25,7.25,0,0,0-2.86,8.87c1.22,3,4.77,5.42,7.92,3.63a5.57,5.57,0,0,0,2.19-2.2A8.29,8.29,0,0,0,363,82.83,1.8,1.8,0,0,0,366,81.1Zm-7.34-3c-.24,1.74-1.51,2.87-2.73,1a3,3,0,0,1,.13-3.52,2.65,2.65,0,0,1,2.4-1.15A15.83,15.83,0,0,1,358.65,78.07Z"/><path d="M378,68.69c.15-2-3-2.41-3.51-.47-1.29,5.42-2.6,11.88-1.95,17.46.33,2.88,4.26,2.55,4.32.1C377.74,80.21,377.61,74.31,378,68.69Z"/><path d="M380.34,72.91c-1.79-.64-3.83-.25-5.7-.11a39,39,0,0,0-5.7.74c-2.22.52-1.49,3.51.51,3.71a37.44,37.44,0,0,0,6,0c1.85-.1,3.68-.06,5.34-.91S381.73,73.41,380.34,72.91Z"/><path d="M397.33,81.66c-1.67.16-3.07.63-4.46-.64a4.77,4.77,0,0,1-1-1.27A9.88,9.88,0,0,0,396.44,78c4.14-3.23-1.32-8.71-5.23-8.23-3,.38-4.18,2.94-4.35,5.71a2.33,2.33,0,0,1-.67-.43c-1.41-1.31-3.91.39-2.76,2.12a6.24,6.24,0,0,0,3.82,2.42,11.37,11.37,0,0,0,.34,1.16A8.49,8.49,0,0,0,392.31,86c2.08.84,4.9.94,6.41-1C399.64,83.84,399.22,81.48,397.33,81.66Zm-4.71-7.47c1.56.53.66.82-.24,1.07-.38.1-.86.22-1.38.32v0C391.08,74.33,391.37,73.77,392.62,74.19Z"/><path d="M415.37,71.14c-3.19-1.18-6.88-.86-9.27,1.72a9.48,9.48,0,0,0-.89,1.14c0-.17-.07-.35-.11-.52-.41-2.22-3.66-1.24-3.34.92a93.53,93.53,0,0,0,1.88,9.25,2.12,2.12,0,0,0,4.15-.56c0-2.35-.27-5.21,1.36-7.13s4.08-.64,6.22-1S417,71.74,415.37,71.14Z"/><path d="M47.77,103c-2.53,24.88-4.43,49.83-6.38,74.75q-1.47,18.69-3,37.37L37,233.06c-.48,6-1.85,12.59-.91,18.55.38,2.39,3.77,1.94,4.41,0,1.87-5.69,1.49-12.59,2-18.55l1.41-17.93q1.46-18.69,2.9-37.37c1.91-24.89,3.8-49.81,5-74.75C51.88,100.41,48,100.51,47.77,103Z"/><path d="M47.57,237c-3.65,2-6.44,6.11-8.61,10a31.11,31.11,0,0,0-10-8.1c-2.71-1.38-5.53,2-3.3,4.28,4,4.09,7.77,8.23,12.26,11.73,1.36,1.05,3.67.07,3.54-1.48a1,1,0,0,0,.08-.14,51.83,51.83,0,0,1,4.18-6.93c1.57-2.17,3.54-4,4.78-6.43A2.18,2.18,0,0,0,47.57,237Z"/><path d="M160,120.58c-12.85,20.6-24.58,42-36.6,63.08q-8.85,15.53-17.6,31.08-4.38,7.78-8.72,15.59c-2.88,5.16-6.93,10.63-8.62,16.29-.6,2,2.18,3.76,3.63,2.11,3.76-4.27,6.17-10.26,8.94-15.23q4.35-7.78,8.73-15.58,8.94-15.88,17.91-31.76c12-21.14,24.58-42,36.17-63.33A2.23,2.23,0,0,0,160,120.58Z"/><path d="M90.49,227.07c.14-2.9-4.19-3.36-5-.67-.57,1.95-1,3.92-1.42,5.91a2.2,2.2,0,0,0,1.12,2.29c0,4.76.38,9.62,1.93,13.84a2.05,2.05,0,0,0,4-.54C91.44,241,90.16,234.06,90.49,227.07Z"/><path d="M105.9,237.33c-5.53,1.86-10.69,5.43-15.73,8.35-2,1.18-.66,4.25,1.58,3.74,5.77-1.33,12.29-3.89,16.23-8.52C109.24,239.4,108.09,236.59,105.9,237.33Z"/></svg>
