<svg xmlns="http://www.w3.org/2000/svg" viewBox="0 0 1024 1024" fill='currentColor'><polygon class="cls-1" points="512 480 480 480 448 480 448 512 448 544 416 544 416 576 416 608 416 640 384 640 384 672 352 672 352 704 320 704 288 704 256 704 224 704 192 704 160 704 128 704 128 672 96 672 96 640 64 640 64 608 64 576 32 576 32 544 32 512 0 512 0 544 0 576 0 608 0 640 0 672 0 704 0 736 0 768 0 800 0 832 0 864 0 896 0 928 0 960 0 992 0 1024 32 1024 64 1024 96 1024 128 1024 160 1024 192 1024 224 1024 256 1024 288 1024 320 1024 352 1024 384 1024 416 1024 448 1024 480 1024 512 1024 544 1024 576 1024 608 1024 640 1024 672 1024 704 1024 736 1024 768 1024 800 1024 832 1024 864 1024 896 1024 928 1024 960 1024 992 1024 1024 1024 1024 992 1024 960 1024 928 1024 896 1024 864 1024 832 1024 800 1024 768 1024 736 1024 704 1024 672 1024 640 1024 608 1024 576 1024 544 1024 512 992 512 992 544 992 576 960 576 960 608 960 640 928 640 928 672 896 672 896 704 864 704 832 704 800 704 768 704 736 704 704 704 672 704 672 672 640 672 640 640 608 640 608 608 608 576 608 544 576 544 576 512 576 480 544 480 512 480"/><polygon class="cls-1" points="992 0 960 0 928 0 896 0 864 0 832 0 800 0 768 0 736 0 704 0 672 0 640 0 608 0 576 0 544 0 512 0 480 0 448 0 416 0 384 0 352 0 320 0 288 0 256 0 224 0 192 0 160 0 128 0 96 0 64 0 32 0 0 0 0 32 0 64 0 96 0 128 0 160 0 192 0 224 0 256 0 288 0 320 0 352 0 384 0 416 0 448 32 448 32 480 64 480 64 448 64 416 64 384 96 384 96 352 128 352 128 320 160 320 192 320 224 320 256 320 288 320 320 320 352 320 352 352 384 352 384 384 416 384 416 416 416 448 416 480 448 480 448 448 448 416 480 416 512 416 544 416 576 416 576 448 576 480 608 480 608 448 608 416 608 384 640 384 640 352 672 352 672 320 704 320 736 320 768 320 800 320 832 320 864 320 896 320 896 352 928 352 928 384 960 384 960 416 960 448 960 480 992 480 992 448 1024 448 1024 416 1024 384 1024 352 1024 320 1024 288 1024 256 1024 224 1024 192 1024 160 1024 128 1024 96 1024 64 1024 32 1024 0 992 0"/><path class="cls-1" d="M320,416V384H160v32H128V608h32v32H320V608h32V416ZM160,480V448h32V416h64v32H224v32H192v32H160Z"/><path class="cls-1" d="M864,416V384H704v32H672V640H864V608h32V416Zm0,64H832v32H800v32H768V480h32V448h64Z"/><polygon class="cls-2" points="800 512 832 512 832 480 864 480 864 448 832 448 800 448 800 480 768 480 768 512 768 544 800 544 800 512"/><path class="cls-2" d="M416,448V384H384V352H352V320H128v32H96v32H64v96H32V448H0v64H32v64H64v64H96v32h32v32H352V672h32V640h32V544h32V480H416Zm-64,32V608H320v32H160V608H128V416h32V384H320v32h32v64Z"/><path class="cls-2" d="M992,448v32H960V384H928V352H896V320H672v32H640v32H608v96H576v64h32v96h32v32h32v32H896V672h32V640h32V576h32V512h32V448ZM672,608V416h32V384H864v32h32V608H864v32H672Z"/><polygon class="cls-2" points="192 416 192 448 160 448 160 480 160 512 192 512 192 480 224 480 224 448 256 448 256 416 224 416 192 416"/><polygon class="cls-2" points="576 416 544 416 512 416 480 416 448 416 448 448 448 480 480 480 512 480 544 480 576 480 576 448 576 416"/><text class="cls-3" transform="translate(57.86 957.7)">lead<tspan class="cls-2" x="454.14" y="0">geek</tspan></text></svg>
