<svg xmlns="http://www.w3.org/2000/svg" viewBox="0 0 50 50" fill='currentColor'><path d="M18,48.36,45.72,37.88A24.4,24.4,0,0,0,49,29.59,343.08,343.08,0,0,0,10.25,44.43,24.34,24.34,0,0,0,18,48.36Z"/><path d="M.9,28.78a24.29,24.29,0,0,0,1.93,6.41A331.17,331.17,0,0,1,48,16.8,24.11,24.11,0,0,0,45,11,408.48,408.48,0,0,0,.9,28.78Z"/><path d="M8.44,42.91A346.65,346.65,0,0,1,49.29,27.25c.07-.74.11-1.49.11-2.25a24.53,24.53,0,0,0-.79-6.16A327.85,327.85,0,0,0,3.81,37.09,24.63,24.63,0,0,0,8.44,42.91Z"/><path d="M21.82,49.18A23.81,23.81,0,0,0,25,49.4,24.32,24.32,0,0,0,43.37,41Z"/><path d="M40.82,6.44,1.09,20.12A24.48,24.48,0,0,0,.6,25c0,.52,0,1,.06,1.54A411.71,411.71,0,0,1,43.58,9.2,24,24,0,0,0,40.82,6.44Z"/><path d="M38.79,4.88a24.39,24.39,0,0,0-37,12.75Z"/></svg>
