<svg  xmlns="http://www.w3.org/2000/svg" viewBox="0 0 50 40" fill='currentColor'><path d="M14.6,39.69c2,.23,2-3,0-3.19C8.66,35.85,4.1,30.45,3.68,24.6c-.45-6.44,3.42-12.53,8.64-16,9.05-6,28.23-8.31,32.26,4.88C46.26,19,47,28.29,41.39,31.81S27,32.59,21.63,29.67c-2.9-1.56-5.62-4-6-7.48s1.7-6.56,4.21-8.69C25,9.1,33.91,8,38.29,14.19c4,5.58-.4,15-7.84,12.18a5.49,5.49,0,0,1-2.87-7.6,4.39,4.39,0,0,1,4-2.64c2.45.09,4.42,3.73,1.22,4.47-2,.46-1.15,3.54.85,3.08a5.33,5.33,0,0,0,3.7-7c-1.25-3.33-5.44-4.42-8.55-3.23-6.81,2.63-6.37,12.71-.16,15.65,7.52,3.56,15-3.11,14.38-10.85-.75-9-10.9-13.34-18.81-10.77-8.1,2.63-15.57,12-9.84,20.19,2.82,4.05,7.58,6,12.13,7.39,4.74,1.48,10,2.44,14.75.4,8.94-3.84,8.92-16.42,5.87-24.24C43.63,2.12,33.7,0,24.92,1,14.36,2.18,3.6,8.22,1,19.24-1.25,28.67,4.68,38.62,14.6,39.69Z"/></svg>
