<svg xmlns="http://www.w3.org/2000/svg" viewBox="0 0 398 254" fill='currentColor'><path d="M9.62,5.56c-1.8,16-3.06,32-4.32,48-.31,3.83,5.73,3.84,6,0,1.07-16,2.14-32,2.67-48C14,2.71,9.92,2.85,9.62,5.56Z"/><path d="M14,5.74c-2.52,1.35-.8,5.68,2,4.69,12.8-4.58,23,11.42,22.17,22.82-.48,6.28-5.46,11.68-11,14.24A14.79,14.79,0,0,1,19.59,49c-3.74-.38-4.67-2.46-6.33-5.43a2.55,2.55,0,0,0-4-.51c-2.91,3.08-1.21,7.1,1.74,9.54,3.22,2.66,7.68,3.38,11.72,2.81C31.29,54.14,39.57,47,42.45,39,47.76,24.08,31.87-3.9,14,5.74Z"/><path d="M73.3,49.38C69,51,63.19,47.32,60.44,44c3.61-1,6.84-3.07,6.7-6.57-.26-6.41-8.56-6-12-2.41a6.27,6.27,0,0,0-1.73,5.29l-.63.06a2.26,2.26,0,0,0,0,4.51,20,20,0,0,0,2.33,0,19.78,19.78,0,0,0,4.37,5c3.85,3.06,11.55,7.48,15.9,3.2C76.9,51.58,75.41,48.6,73.3,49.38ZM59.62,37.77l2.19,0c.22.62-1.47,1.19-3.44,1.63A2.54,2.54,0,0,1,59.62,37.77Z"/><path d="M95.1,52.8c-1.27-6.58-1.78-13.16-2.56-19.8a2.2,2.2,0,0,0-4.39,0,59.92,59.92,0,0,0,.23,12.7c.31,2.72.42,6,1.41,8.65a1.87,1.87,0,0,0,.3.79l.1.15a2.51,2.51,0,0,0,3.87.5l.33-.28A2.79,2.79,0,0,0,95.1,52.8Z"/><path d="M103.39,38c-3.58-.58-7.19,0-10.8.29s-7.39.18-10.71,1.49c-2,.79-2.31,3.71,0,4.36,3.47,1,7.16.5,10.71.29s7.42-.14,10.8-1.33C105.6,42.31,106.2,38.44,103.39,38Z"/><path d="M132.84,48.12c-1.19-2.73-3.32-5.24-4.82-7.85a2.23,2.23,0,0,0-1.46-1c-6.54-6.88-19.39,3.3-12.46,10.61A9.75,9.75,0,0,0,126,51.11a7,7,0,0,0,1.67-1.54A10.17,10.17,0,0,0,129.11,51,2.39,2.39,0,0,0,132.84,48.12ZM118,45.78c-.67-1.34.68-2.79,2-3.22,1.5-.52,2.89.18,4.15,1l.13.06c.12.3.25.59.39.89C124.35,46.72,119.28,48.37,118,45.78Z"/><path d="M146.13,38.2c.28-3-4.25-3.36-5.08-.69-.08.25-.15.5-.23.74a2.49,2.49,0,0,0-.08.35,26.42,26.42,0,0,0-.78,5.52c0,1.07,0,2.14,0,3.21,0,.64.4,1.82.38,2.55a2.32,2.32,0,0,0,0,1.7,2.7,2.7,0,0,0,3.9,1.58c2.47-1.36,1.56-4,1.43-6.29A57.15,57.15,0,0,1,146.13,38.2Z"/><path d="M146.67,29.44l-.26-.6a1.93,1.93,0,0,0-.65-.71,1.27,1.27,0,0,0-.55-.32,1.92,1.92,0,0,0-1-.22l-.67.09-.6.26a1.83,1.83,0,0,0-.71.64,2,2,0,0,0-.45.86,2.14,2.14,0,0,0-.11,1,1.93,1.93,0,0,0,.22,1,1.92,1.92,0,0,0,.52.82,1.89,1.89,0,0,0,.82.52,1.93,1.93,0,0,0,1,.22l.67-.09a2.53,2.53,0,0,0,1.12-.65c.13-.17.27-.34.4-.52a2.48,2.48,0,0,0,.34-1.28A2.27,2.27,0,0,0,146.67,29.44Z"/><path d="M163.61,44.79c0-4-.05-7.93-.1-11.9-.09-7.68-.35-15.33-.66-23a2.19,2.19,0,0,0-4.37,0c-.33,7.67-.6,15.33-.71,23-.06,3.7-.09,7.41-.12,11.11s-.62,7.56.57,11a2.51,2.51,0,0,0,4.8,0C164.14,51.78,163.64,48.15,163.61,44.79Z"/><path d="M187.56,49.67c-2.7-.21-5.18-.46-7.23-2.42a8,8,0,0,1-1-1.14c3.14-1.24,6-3.19,6.1-6.08.14-4.43-6.69-7-9.9-4.56-2.42,1.87-2.94,4.92-2.48,7.84-.4.13-.79.27-1.19.39-2.69.81-1.52,4.51,1.13,4.1.42-.07.91-.15,1.44-.26,0,.07.07.15.11.23,2.56,4.74,8.29,7.87,13.65,6.71C191.06,53.87,190.18,49.87,187.56,49.67Zm-9.85-8.58c.11-.8.29-1.64,1.09-1.79a2.33,2.33,0,0,0,1.4.58c-.54.36-1.1.7-1.67,1-.27.16-.55.3-.83.44C177.71,41.26,177.7,41.17,177.71,41.09Z"/><path d="M219.89,10.21c-.06-2.27-3.79-3-4.16-.56a238.23,238.23,0,0,0-2.2,25.24c-.16-.12-.31-.24-.48-.35-4.28-2.77-10.33-2.57-13.47,1.83-6.92,9.72,4.64,20.2,14.35,16.77A3.29,3.29,0,0,0,219.42,51a27.25,27.25,0,0,0,.05-3.26C219.69,35.21,220.25,22.68,219.89,10.21ZM205.33,46.13a4.68,4.68,0,0,1-1-6.55c2.11-2.56,5.86-.68,7.36,1.58a10.45,10.45,0,0,1,1.5,5.15c0,.12,0,.23,0,.35C210.59,47.28,207.67,47.92,205.33,46.13Z"/><path d="M273.83,41.8a28.42,28.42,0,0,0-4-3.31c-1.06-.8-2.12-1.59-3.17-2.4l-1.28-1A12.3,12.3,0,0,1,267,33a2.25,2.25,0,0,0,3.8,1.57l.5-.43a2.54,2.54,0,0,0,.65-2.46c-1.83-6.74-13.37-2.37-12.05,4.27.75,3.78,5.91,6,8.56,8.23,2.3,1.93,2.56,4.29-1.12,3.61-2.38-.43-4-2.35-6.17-3.23-1.86-.74-3.31,1.37-3,3,1.37,6.66,13.41,8.66,17,2.87C277,47.59,275.93,44.12,273.83,41.8Z"/><path d="M302.45,49.64c-3.7-1.82-8.57.59-11.67-3a9.29,9.29,0,0,1-1.51-2.62c4.4-.31,9-1.68,10.14-5.13,1.86-5.75-7.77-9.07-11.82-6.93-2.87,1.52-4.08,4.28-4.27,7.29l-.49,0c-2.39.12-3.14,3.77-.59,4.34q.67.15,1.53.27a17.81,17.81,0,0,0,1.81,4.67c2.84,5,11.74,8.52,16.87,5.07C303.79,52.76,304.12,50.47,302.45,49.64Zm-8.52-12c-1,.75-3.2,1.16-5.39,1.38A3.11,3.11,0,0,1,293.93,37.61Z"/><path d="M331.73,48.42c-.45-1.79-2.08-3-3.17-4.36a26.15,26.15,0,0,1-3.92-7.16,3.33,3.33,0,0,0-.53-.93,1.94,1.94,0,0,0-1.08-1.7c-3.57-1.83-8.26-2.41-11.49.51s-3.63,9-1.55,12.82a7.34,7.34,0,0,0,10.56,2.72,8.65,8.65,0,0,0,3.28-3.54c.3.42.61.83.92,1.23s.76,1,1.17,1.44c.07.08.12.15.18.21s0,.16,0,.25,0,.16.05.24a2.68,2.68,0,0,0,3.88,1.57l.38-.17A2.8,2.8,0,0,0,331.73,48.42Zm-13.3-3.14c-2.07,1.94-4.06.39-4.54-2-.92-4.54,2.12-6.07,5.58-5.45a3.42,3.42,0,0,0,0,.44C319.88,40.47,320.21,43.62,318.43,45.28Z"/><path d="M347.83,36.65c-1.88-4-7.52-2.67-10.05-.19l-.21-1.16c-.49-2.54-4.11-1.73-4.27.58-.37,5,.56,10.22,1.46,15.17a2.83,2.83,0,0,0,3.44,2c2.56-.87,3-3,2.54-5.42a9.18,9.18,0,0,1-.11-4.54,5.7,5.7,0,0,1,1-2.19c.27-.3,1.39-1.07,1.36-1.13.81,1.39,3.12,1.91,4.25.55l.13-.16A3,3,0,0,0,347.83,36.65Z"/><path d="M364.66,44.33c-1.28,0-2.47.74-3.74.86a15,15,0,0,1-4.07-.15c-1.68-.33-2.67-1.15-2.2-3a5,5,0,0,1,1.2-2.06,7.84,7.84,0,0,1,.82-.81,1.08,1.08,0,0,0,.67-.46A2.12,2.12,0,0,0,361,38c1-2.91-1.81-5.29-4.64-4.65s-5.32,3.36-6.52,5.88c-3.11,6.51,1.72,12,8.24,12.55,2.6.21,6.34.25,8.33-1.74S367.77,44.41,364.66,44.33Z"/><path d="M379,8.8c0-2.85-4.28-2.83-4.41,0C373.92,23,373.33,37.24,373,51.47c-.09,4,6.16,3.5,5.83-.16C379.1,37.14,379.05,23,379,8.8Z"/><path d="M394.12,39.16c-.6-3.08-1.85-6.82-5.69-6.59-3.46.21-6.06,3.8-7.92,6.37a28.17,28.17,0,0,0-5,10.86c-.43,2.21,2.86,4,3.9,1.65,2-4.59,4.24-9.1,8-12.58a6.24,6.24,0,0,1,.88-.75c0,.11.12.24.21.4.63,1.19.64,3.19.75,4.51.22,2.63-.54,5.51.26,8a2.34,2.34,0,0,0,4.23.55C395.84,48.29,394.84,42.83,394.12,39.16Z"/><path d="M14.49,61.92c.06-2.58-3.92-3.16-4.53-.61C6.13,77.17,7.26,94,6.83,110.2c-.09,3.74,6,3.7,5.79,0C11.27,94,14.11,78.05,14.49,61.92Z"/><path d="M22.22,86.89C18.11,85,10.45,84.48,10.39,90.83c0,1.83,2.52,3.08,3.81,1.58,4.13-4.83,12.71,3,11.19,8.39a7,7,0,0,1-6.11,5c-3.61.3-5.31-2.43-8.26-3.7a2.45,2.45,0,0,0-3.55,2.72c.81,5.9,9.36,8,14.22,6.54a13.06,13.06,0,0,0,9.48-12C31.25,93.38,27.38,89.24,22.22,86.89Z"/><path d="M54.05,99a2.18,2.18,0,0,0-4.19,1.16c.61,4.15-6.9,6.16-8.4,2.2-1.29-3.43-.31-8-.71-11.57-.26-2.31-4.11-3.41-4.52-.61-.86,5.89-2.07,17.08,5.48,19.32C48,111.35,56.79,106.2,54.05,99Z"/><path d="M57.11,102.52a70.88,70.88,0,0,0-2.17-6.81c-.2-.53-1.76-3.49-2.22-4.86a2.78,2.78,0,0,0,.15-1.6,2.93,2.93,0,0,0,0-.29,2.36,2.36,0,0,0-1.64-1.64l-.26-.07a2.42,2.42,0,0,0-2.71,1.1c-1.08,2.38.32,4.42,1.11,6.75a60,60,0,0,1,2.6,9.64c.56,3.56.36,8.67-3.94,9.71-3.66.88-7.37-.85-11,.49-2,.73-2.88,3.8-.64,4.93,6.76,3.42,17.12,2,20.42-5.39C58.45,110.66,58.1,106.48,57.11,102.52Z"/><path d="M90.75,63.42A2.22,2.22,0,0,0,87.33,63l-.16.15a2.12,2.12,0,0,0-.34,2.55c.37,3.17-.44,7-.59,10.13-.17,3.64-.28,7.28-.42,10.92-.27,7.09-.55,14.17-.88,21.26h0v0h0c0,3.47,5.79,4,5.83,0q.14-11.84.38-23.64c.07-3.89.14-7.78.17-11.66C91.34,70.12,92.33,65.65,90.75,63.42Z"/><path d="M101.6,86.71c-2.5,1.25-4.73,3.31-7,5a38.53,38.53,0,0,0-6.39,5.24,2.54,2.54,0,0,0,3.06,4c2.57-1.14,4.84-3.09,7.1-4.74a61.38,61.38,0,0,0,6.08-4.56C106.94,90.19,105.41,84.79,101.6,86.71Z"/><path d="M110.61,103.83c-5.74-3.25-12.65-6.31-19.15-7.52-2.42-.45-4.2,2.88-1.77,4.2a198.62,198.62,0,0,0,18.78,8.4C111.41,110.14,113.3,105.35,110.61,103.83Z"/><path d="M134.58,103.8c-2.89.22-4.92.14-6.82-2.4l-.1-.15a7.68,7.68,0,0,0,5.47-2.92c1.63-2.33.63-4.8-1-6.74s-4-4.9-7-4.59c-3.92.4-4.71,4.78-4.35,8.83-1.48-.28-3-.66-4.49-1.07-2.33-.61-3.94,2.84-1.68,4a26.73,26.73,0,0,0,7.3,2.3q.11.27.21.51c2.29,5.25,8.64,10.5,14.14,6.24C137.83,106.57,136.5,103.66,134.58,103.8Zm-7.67-11.61,1.41,1.49c.88,2.12-1.2,2.55-2.93,2.58a5,5,0,0,1,.07-3.1C125.3,92.18,125.79,91.86,126.91,92.19Z"/><path d="M146.58,99.06c-1.29,2.48-3.65,2.21-4-.62-.38-2.68.36-5.4,0-8.06-.27-1.87-3.08-2-3.9-.51-2.23,4-2.47,11.88,1.47,15a6.49,6.49,0,0,0,10.67-4.69C150.81,98,147.6,97.09,146.58,99.06Z"/><path d="M150.54,89c-.32-2.72-4.49-2.87-4.37,0,.29,6.76,1.54,14.37-.1,21-.78,3.17-2.37,6.12-5.35,7.71-2.72,1.44-5.67.49-8.35,1.62-1.74.73-2.5,2.69-1.11,4.21,5.61,6.11,15.52-1.39,18.29-6.85C153.9,108.1,151.59,98,150.54,89Z"/><path d="M189.31,94.1c-.58-4.28-2.07-8-6.76-8.67-2.1-.29-3.11,2.78-1.7,4.08A7.89,7.89,0,0,1,183,94.26c.17,1,1.29,7.6.3,8.42-1.39,1.17-4.62-1.36-5.54-2.21a10.74,10.74,0,0,1-3.24-6.22c-.79-3.7-6.37-2.12-5.65,1.56.55,2.63.31,12.11-4.43,6.65-2.43-2.79-2.53-8.11-2.06-11.53.37-2.67-3.51-3.94-4.17-1.15-1.53,6.39-.41,17.93,7.46,19.88,4.39,1.08,6.91-1.45,8.17-4.93a16.3,16.3,0,0,0,2.22,1.73c3.14,2,8.62,3.91,11.74.84S189.8,97.73,189.31,94.1Z"/><path d="M200.55,89.3a2.09,2.09,0,0,0-.86.86c-2.54,2.19-3.5,6.69-3.54,9.93-.05,5.2,4,10.79,9.72,9.34C218.3,106.28,211.67,83.14,200.55,89.3Zm5,13.76c-2,2.16-4.1-.18-4.32-2.4-.11-1.15.28-5.61,1.62-6.89C206.26,94.81,208.12,100.33,205.54,103.06Z"/><path d="M232.51,92.52c-1.94-4-7.64-3.48-10.28-.58a7.3,7.3,0,0,0-.49.59l0-.31c-.32-2.59-4.3-2.75-4.18,0a49.33,49.33,0,0,0,.77,7.06c.31,1.63.82,3.23,1.24,4.84a19.6,19.6,0,0,0,.52,2.45c.42,2.86,5.41,2.22,5.1-.69-.29-2.65-.63-5.26,0-7.89.36-1.52,1.59-4.13,3.23-2.3C230.5,98,233.72,95.06,232.51,92.52Z"/><path d="M257.65,70.34c.57-2.72-3.86-3.85-4.53-1C251.78,75,251.84,81,251.55,86.78c-.12,2.47-.23,4.93-.35,7.4-.82-1.07-1.7-2.13-2.61-3.19-3.12-3.61-7.09-4.22-9.59.46-2.16,4-2.71,10.09-.17,14.09s8.13,4.5,12.3,2.87c1.3,2.2,5.54,1.1,5.61-1.82C257,94.59,256.34,82.29,257.65,70.34Zm-14.32,31.39c-1.08-1.4-1.23-6.88.55-7.4,2-.59,4.23,4.25,5.6,8.3C247.23,103.05,244.75,103.55,243.33,101.73Z"/><path d="M332.79,122.73c-1.13-10.71-5.78-20.8-16.13-25.31-11-4.81-25.16-3.06-36.33.54-3.54,1.14-2,6,1.5,5.45,12.12-1.85,27.86-6.31,37.9,3.52s6.67,28.1,6.14,40.64c-.73,16.92-1.42,33.83-2.18,50.75l-1.17,26.31q-.3,6.59-.62,13.16c-.1,1.88-.19,3.76-.28,5.64,0,.76.13,3,.09,4.43a2.24,2.24,0,0,0-.7,1.24,3.75,3.75,0,0,0,1,3.81,3.28,3.28,0,0,0,3.89.51c4.85-2.78,3.17-11.87,3.32-16.57.25-7.83.54-15.66.82-23.49q.85-23.51,1.75-47C332.38,152,334.29,137,332.79,122.73Z"/><path d="M326.23,248.07c-2.41-4.95-6.19-9.28-9.5-13.65-3-3.88-5.51-8.31-9.85-10.73a2.77,2.77,0,0,0-4,3.09c1.24,5.05,5.21,9,8.33,13s6.21,8.61,10.15,12.05A3.13,3.13,0,0,0,326.23,248.07Z"/><path d="M343.64,229.66a110.91,110.91,0,0,1-9,10c-3.26,3.06-6.89,5.68-10.16,8.72-2.35,2.19.63,5.25,3.18,4.13,8.41-3.71,15.89-11.47,21.11-18.88C350.83,230.61,346,226.83,343.64,229.66Z"/></svg>
