<svg xmlns="http://www.w3.org/2000/svg" viewBox="0 0 1200 50" fill='currentColor'><path d="M60.7,35.8a138,138,0,0,1,34.85,2.07c11,1.94,21.63,3.23,32.79,2.66,11-.56,21.9-2.21,32.89-2.74,11.8-.57,23.21,1.27,34.93,2.21,11.32.9,22.31-.87,33.56-1.7s22.65,0,34,.41c12.07.42,24,0,35.74-2.87,10.34-2.52,20.4-6.13,31-7.15,10.63-.48,15,4.65,25.57,6.31,2.32.37,10.13,1.46,12,3,1.32,1.09,4.32.58,6,1,4,1,5.74-.73,9.4-.74,10.7,0,21.31-1.66,32-1.51,10.35.15,20.65,1.16,31,2.08,20.08,1.81,40.09,2.94,59.79-2.23,10.08-2.64,19.71-5.15,30.22-5.31,10.78-.16,21.57,1.05,32.28,2.22,22.43,2.46,44.9,5.23,67.38,1.9h0l62.25-7.07c1.66-.18,3.59-.56,5.56-.8h6a7.55,7.55,0,0,1,3.83,1.84c2.7,2.53,4.69,4.5,8.56,4.93,3.53.39,7-.73,10.41-1.45a30.49,30.49,0,0,1,15.11.78c8.6,2.41,16.65,5.8,25.78,5,8.67-.73,16.79-4,25-6.59,19.13-6,38.54-4.09,58-.64,18.61,3.31,37.21,7.48,56.23,6.69,20.32-.85,40.2-5.87,60.53-6.67,19.94-.78,39.84,1.24,59.77,1.26A191.68,191.68,0,0,0,1061,30.92c10.12-1.47,20.21-5.24,30.51-5.12,10.61.13,19.92,6.25,30.44,7.3,10.71,1.07,21.41-1.09,32.13-.69,13.4.49,29.22,5.8,41.47-.87h.41v-.23a24.2,24.2,0,0,0,4-2.87v-73.9H0V40.79C20.37,42.05,40.43,37.33,60.7,35.8Z"/></svg>
