<svg  xmlns="http://www.w3.org/2000/svg" viewBox="0 0 1200 50" fill='currentColor'><path d="M1194.28,4.47c-2.81.34-5.17-.48-7.86-.48-3.26,0-5.44,2.2-8.79,2.51-4.33.4-8.48-2.15-12.73-.52-2.08.79-3.63,2.73-5.55,3.8-3.3,1.82-7.23,2.11-10.95,2-6.26-.19-10.53-3.85-16.09-6a23.74,23.74,0,0,0-5.62-1.07c-1.27-.19-4.92-1.4-6.58-1.36-2.15.06-4.38,1.5-6.44,2-3.28.76-6.24,0-9.49-.16-2-.07-4.08.61-6,.53-3.55-.16-6.62-3.34-10-3.27a5.39,5.39,0,0,0-2.85.88c-.65.41-1,1.14-1.63,1.56-2,1.41-3.9,1-6.08,1.08-5,.15-10,.45-15.06.68-4.2.19-7.72-1-11.42,1.34-2.26,1.41-3.33,2.37-6.44,2.23-2.42-.12-4.72-1.19-7.2-1.2-5.3,0-10.12,2.83-15.24,3.8-2.76.52-5.6.56-8.34,1.16-2.35.52-4.33,1.46-6.91,1.35-6.6-.3-9.1-5.43-14.17-8.5-4.32-2.62-9.66-3.5-14.59-4.1-2.83-.34-3.73.08-5.85,1.22a27.11,27.11,0,0,1-14.27,3.51c-4.58-.25-9,.7-13.59.39-5.48-.37-9.67-2.41-15.38-1.83-3.37.35-6.43,1.07-9.82.86a42,42,0,0,0-6-.16c-6.57.56-13.67,4.43-19.79,1.23-3.62-1.9-6.32-3-10.52-2.57-6.77.75-11.84,4.72-18.78,2.45-3.29-1.07-6.72-3-10.22-2.22-5.56,1.3-10.75,3.53-16.55,4-4.8.39-9.76-.62-14.53.18-3,.51-4.94,1.55-8,.56-2.63-.84-5-2.74-7.54-3.63-9.44-3.26-19.12.86-28.48,1.73S761.34.21,751.65,3.54c-4.84,1.66-9.53.15-14.39,1.51-3.33.92-4.15,1.18-8.62.62-2.67-.34-4.36,0-7.14.09-4.46.06-7.88-.56-12.45.26-6.34,1.13-12.29,4.07-18.88,3.41-4.59-.45-8-1.51-12.65-1.29-6.12.3-11.6-2.95-17.68-3-5.36,0-9.82,3.91-15,2.84-2.81-.58-3.36-1.72-5.63-2.76s-4.92-.69-7.43-.64c-4.77.1-9.24-1-14-.35-2.34.3-4.53.62-6.83,1.11-3.46.73-5,.79-8.13-.67A11.33,11.33,0,0,0,593.58,4a52.24,52.24,0,0,0-4.86,2.55c-4.05,1.92-9.09,1.56-13.41.64s-9.1-2.43-13.7-1.41C555,7.25,550.54,10.87,543.2,9c-4.14-1.09-8.39-3.6-12.48-5.06A42.39,42.39,0,0,0,516.4,1.41a97.37,97.37,0,0,0-15.14,2.05c-5.34,1-9.69,4-15.26,4.51-5.36.5-10.2,1.22-15.44-.63-4.28-1.51-8.74-3.9-13.4-3.69s-9.67,1.88-14.08,3.22c-5.91,1.8-11.94,1.1-18.12.88C419.26,7.54,414.89,4,409.21,4c-6.36.06-12.22,2.76-18.5,3.14-4.91.3-9.61-1.51-14.57-1.35a30.75,30.75,0,0,0-7.78.8c-3,.87-6.12,3.08-9.34,2.65-4.15-.55-6.86-5.29-11.46-5.86S338.19,5,333.73,5.66c-6.21.9-14.82,1.09-20.91-.25-4-.89-6.93-2.61-11.1-1.75S293,5.71,288.92,7a49.45,49.45,0,0,1-17.44,2.28c-10.24-.39-18.39-8.89-28.81-3.83-2.48,1.2-3.43,2.07-6.52,2.13a51.8,51.8,0,0,1-9-1,29.88,29.88,0,0,0-13.75.38C207,8.61,202,10.8,195.26,9c-5.85-1.58-11.4-1.21-17.41-1.21-4.65,0-9.12-.17-13.67.68-2.62.49-3.75.83-6.29-.18-1.85-.74-1.73-1.17-3.24-1.93a8.38,8.38,0,0,0-4.26-1.22c-4.5,0-9.7,2.13-13.86,3.61-5.09,1.82-10.4,5.35-15.84,4.61-5.21-.71-9.52-3.42-15-3.35s-9.7,2.36-15.1.47c-8.5-3-16.9-6.14-26-4.42C59,7.07,53.08,7.81,47.45,6.73a46.38,46.38,0,0,0-15.81-.49c-6.16.93-10.66.55-16.74-.19C9.78,5.42,5.35,7.54.45,7.75A1.54,1.54,0,0,0-.84,10H-1V24H.5v91.5H1203V4.24C1200.11,4.36,1197.22,4.11,1194.28,4.47Z"/></svg>
