<svg xmlns="http://www.w3.org/2000/svg" viewBox="0 0 1200 50" fill='currentColor'><path d="M8.72,46.43c2.81-.34,5.17.48,7.86.48,3.26,0,5.44-2.21,8.79-2.52,4.33-.39,8.48,2.15,12.73.53,2.08-.79,3.63-2.74,5.55-3.8,3.3-1.83,7.23-2.12,11-2,6.26.18,10.53,3.84,16.09,6a24.25,24.25,0,0,0,5.62,1.07c1.27.18,4.92,1.39,6.58,1.35,2.15,0,4.38-1.5,6.44-2,3.28-.77,6.24,0,9.49.16,2,.07,4.08-.61,6-.53,3.55.15,6.62,3.34,10,3.27a5.4,5.4,0,0,0,2.85-.89c.65-.4,1-1.13,1.63-1.56,2-1.41,3.9-1,6.08-1.07,5-.16,10-.46,15.06-.68,4.2-.19,7.72,1,11.42-1.34,2.26-1.42,3.33-2.38,6.44-2.23,2.42.11,4.72,1.18,7.2,1.19,5.3,0,10.12-2.82,15.24-3.79,2.76-.53,5.6-.57,8.34-1.17,2.35-.51,4.33-1.46,6.91-1.34,6.6.3,9.1,5.43,14.17,8.5,4.32,2.61,9.66,3.5,14.59,4.09a7.75,7.75,0,0,0,5.85-1.21,27,27,0,0,1,14.27-3.51c4.58.25,9-.7,13.59-.39,5.48.37,9.67,2.41,15.38,1.83,3.37-.35,6.43-1.07,9.82-.86a40.6,40.6,0,0,0,6,.15c6.57-.56,13.67-4.42,19.79-1.22,3.62,1.89,6.32,3,10.52,2.57,6.77-.75,11.84-4.72,18.78-2.46,3.29,1.07,6.72,3.05,10.22,2.23,5.56-1.31,10.75-3.54,16.55-4,4.8-.39,9.76.62,14.53-.19,3-.5,4.94-1.54,8-.55,2.63.84,5,2.74,7.54,3.63,9.44,3.26,19.12-.87,28.48-1.74s17.49,8.27,27.18,4.94c4.84-1.66,9.53-.15,14.39-1.51,3.33-.93,4.15-1.19,8.62-.62,2.67.34,4.36,0,7.14-.09,4.46-.07,7.88.56,12.45-.26,6.34-1.14,12.29-4.08,18.88-3.42,4.59.46,8,1.51,12.65,1.29,6.12-.29,11.6,3,17.68,3,5.36,0,9.82-3.91,15-2.84,2.81.58,3.36,1.72,5.63,2.76s4.92.69,7.43.64c4.77-.11,9.24,1,14,.35,2.34-.3,4.53-.62,6.83-1.11,3.46-.74,5-.8,8.13.67a11.41,11.41,0,0,0,9.24.68,52.24,52.24,0,0,0,4.86-2.55c4.05-1.92,9.09-1.56,13.41-.64s9.1,2.42,13.7,1.41C648,43.64,652.46,40,659.8,41.94c4.14,1.08,8.39,3.6,12.48,5.06a42.64,42.64,0,0,0,14.32,2.49,97.37,97.37,0,0,0,15.14-2.05c5.34-1,9.69-4,15.26-4.52,5.36-.49,10.2-1.21,15.44.64,4.28,1.51,8.74,3.9,13.4,3.68s9.67-1.87,14.08-3.22c5.91-1.79,11.94-1.1,18.12-.87,5.7.21,10.07,3.8,15.75,3.75,6.36-.06,12.22-2.77,18.5-3.15,4.91-.3,9.61,1.51,14.57,1.36a31.21,31.21,0,0,0,7.78-.8c3-.87,6.12-3.08,9.34-2.65,4.15.55,6.86,5.28,11.46,5.85s9.37-1.62,13.83-2.27c6.21-.9,14.82-1.1,20.91.25,4,.89,6.93,2.61,11.1,1.75s8.75-2.05,12.8-3.34a49.22,49.22,0,0,1,17.44-2.27c10.24.39,18.39,8.89,28.81,3.83,2.48-1.21,3.43-2.08,6.52-2.13a50,50,0,0,1,9,1A29.88,29.88,0,0,0,989.63,44c6.36-1.67,11.34-3.86,18.11-2,5.85,1.59,11.4,1.22,17.41,1.22,4.65,0,9.12.17,13.67-.68,2.62-.49,3.75-.83,6.29.18,1.85.74,1.73,1.16,3.24,1.93a8.38,8.38,0,0,0,4.26,1.22c4.5,0,9.7-2.13,13.86-3.62,5.09-1.81,10.4-5.34,15.84-4.6,5.21.71,9.52,3.42,15,3.35s9.7-2.36,15.1-.47c8.5,3,16.9,6.14,26,4.42,5.59-1.05,11.52-1.8,17.15-.71a46.37,46.37,0,0,0,15.81.48c6.16-.92,10.66-.55,16.74.2,5.12.62,9.55-1.49,14.45-1.7a1.54,1.54,0,0,0,1.29-2.25h.16v-14h-1.5V-64.6H0V46.66C2.89,46.54,5.78,46.79,8.72,46.43Z"/></svg>
