<svg xmlns="http://www.w3.org/2000/svg" viewBox="0 0 1200 50" fill='currentColor'><path d="M1139.3,9.74a137.56,137.56,0,0,1-34.85-2.08c-11-1.93-21.63-3.22-32.79-2.65-11,.56-21.9,2.21-32.89,2.74-11.8.57-23.21-1.28-34.93-2.21-11.32-.9-22.31.87-33.56,1.7s-22.65,0-34-.41c-12.07-.42-24,0-35.74,2.86-10.34,2.53-20.4,6.14-31,7.15a158,158,0,0,1-31.86-1.57c-2.33-.37-4.64-.64-6.5-2.18-1.32-1.09-2.13-2.61-3.51-3.65-3.09-2.32-7.44-2.17-11.1-2.16-10.7,0-21.31,1.66-32,1.51-10.35-.15-20.65-1.16-31-2.08-20.08-1.81-40.09-2.94-59.79,2.22-10.08,2.65-19.71,5.16-30.22,5.32C652.81,14.41,642,13.2,631.31,12c-22.43-2.45-44.9-5.22-67.38-1.89h0l-62.25,7.06c-1.66.19-3.59.56-5.56.81h-6a7.63,7.63,0,0,1-3.83-1.84c-2.7-2.53-4.69-4.5-8.56-4.93-3.53-.39-7,.72-10.41,1.45a30.49,30.49,0,0,1-15.11-.78c-8.6-2.41-16.65-5.8-25.78-5-8.67.74-16.79,4-25,6.6-19.13,6-38.54,4.09-58,.64C324.8,10.8,306.2,6.63,287.18,7.42c-20.32.85-40.2,5.87-60.53,6.67-19.94.77-39.84-1.25-59.77-1.26A191.68,191.68,0,0,0,139,14.62c-10.12,1.47-20.21,5.24-30.51,5.12-10.61-.13-19.92-6.26-30.44-7.3-10.71-1.07-21.41,1.09-32.13.69-13.4-.5-29.22-5.8-41.47.87H4v.23A24.2,24.2,0,0,0,0,17.1V91H1200V4.75C1179.63,3.49,1159.57,8.21,1139.3,9.74Z"/></svg>
