<svg  xmlns="http://www.w3.org/2000/svg" viewBox="0 0 174 61" fill='currentColor'><path d="M69.82,44c-1.81.28-3.2-.5-4.15-2.37a2.5,2.5,0,0,0-3.54-3.53,5.12,5.12,0,0,0-1.22,1.38,29.55,29.55,0,0,1-3.09,2.93,11.93,11.93,0,0,1-2.08,1.52c-1.45-.34-2.22-.76-2.35-1.27l1.54-2c1.75-2.32-2-4.93-3.93-3a11.28,11.28,0,0,0-1.94,2.56L47,42.94l0-1.27.42-1.2A68.13,68.13,0,0,0,50.76,25c.28-2.64-3.43-3.15-4.66-1.26-3,4.67-3.82,11-4,17.13a11.83,11.83,0,0,1-1.6,3.46c-2.45,2.74-4,.36-4.28-2.19q0-.47,0-1c.55-1.6-1.08-3.55-3.08-3.28s-4.18.61-6.26,1a52.46,52.46,0,0,0,2.45-8.58c.93-4.78,2.64-12.7-2.06-16.16s-12.69,1.29-16.49,4.29c-4.77,3.77-8.17,9.18-5.2,15.2S14.79,41,20.79,40.13l.13,0-.19.4a25.1,25.1,0,0,0-9.18,5.29C8.61,48.54,3.7,55.58,8.21,59.2s9.41-4.36,11.55-7.28a53.8,53.8,0,0,0,4.54-7.35c1-.28,2-.52,3-.72A11.54,11.54,0,0,0,27,51.46a2.53,2.53,0,0,0,4.18,1.1,14.27,14.27,0,0,0,2.63-2.83c1.92,2.52,4.76,3.66,8.13.91.13,2.51,3.3,2.84,4.65,1L49.38,48A6.31,6.31,0,0,0,51,49.11c3.56,1.73,7.36-.39,10.44-3.09,1.9,2.51,5.38,2.89,8.4,3C73,49.09,73,44.09,69.82,44ZM19.46,35.31c-5,.75-12.66-2.82-9.36-9.07,1.66-3.14,7.26-7.21,10.76-7.63,5.05-.62,4.56,3.3,4.1,7.12a49.1,49.1,0,0,1-2.7,11.06A2.64,2.64,0,0,0,19.46,35.31ZM12.81,52.6c-.52.59-3.85,4.63-.83.83a48,48,0,0,1,3.32-3.89C14.51,50.59,13.7,51.62,12.81,52.6Z"/><path d="M98,34.19a63.74,63.74,0,0,0-14.2,4.38c2.46-8.65,3.4-17.84,4.18-26.95.28-3.21-4.72-3.19-5,0C82.14,21.81,81.14,32.44,77.55,42c-5.54,3.78-9.37,8.91-8,15.58.36,1.74,3,2.53,4.18,1.1a51.66,51.66,0,0,0,7.6-12.84c1.16-.72,2.31-1.35,3.31-1.89a48.75,48.75,0,0,1,14.75-5C102.52,38.45,101.18,33.63,98,34.19Z"/><path d="M94.12,11Q88,30.88,83.58,51.22c-.68,3.14,4.14,4.48,4.83,1.33q4.44-20.34,10.53-40.26C99.89,9.2,95.06,7.88,94.12,11Z"/><path d="M172,49.87a18.68,18.68,0,0,1-2.36-10.66,42,42,0,0,0,2.51-8c.53-2.65-3.16-4.55-4.57-1.93a24.57,24.57,0,0,0-2.79,8.53,35.29,35.29,0,0,1-2.71,5,2.31,2.31,0,0,0-2.32.61,8.77,8.77,0,0,0-1.66,2.34q-.69.9-1.47,1.74l-.29.27a22.57,22.57,0,0,1,1-4.29,38.59,38.59,0,0,0,6.47-17c.26-2-2.27-2.91-3.76-2.16-3.62,1.82-4.29,6.49-5.34,10-.65,2.19-1.44,4.52-2.14,6.89a27.34,27.34,0,0,1-2.68,2.91A24.22,24.22,0,0,1,147,46.52l-.21-.07a9.3,9.3,0,0,0,1-4.33A2.53,2.53,0,0,0,144,40c-2.71,1.74-5.25,4.39-4.84,7.67-1.34.88-2.9.72-4.69-.5l.47-.41c2.2-1.81-.65-5.43-3-3.93a6.82,6.82,0,0,0-1.5,1.29c-.5.47-1,1-1.45,1.45a22.33,22.33,0,0,1-3.51,2.24c.07-.25.14-.51.2-.76a2.8,2.8,0,0,0-2-3.17c4-5.54,6.69-12,6.32-18.78-.13-2.32-3.46-3.61-4.66-1.26a110.78,110.78,0,0,0-7.87,19.89,27.19,27.19,0,0,1-4.58,4.91,5.31,5.31,0,0,1,.13-.89c.85-1.33,1.59-2.56,2.18-3.37,1.67-2.29-2-5.11-3.93-3a16.88,16.88,0,0,0-2.31,3.3,19.24,19.24,0,0,1-2,2.46c-2.06,2.12-2.53,1-2.54-1a9.83,9.83,0,0,0,0-1.41,2.48,2.48,0,0,0-3.65-2.14,2.13,2.13,0,0,0-3.22-.76c-3.52,2.45-8.14,9.89-2.81,13,3,1.74,5.37.44,7.06-1.86a4.78,4.78,0,0,0,2.65,1.55,5.12,5.12,0,0,0,4.3-1.52c1.72,2.12,4.36,1.47,6.4,0-.32,1.62-.61,3.25-.85,4.89-.27,1.84,1.71,4.32,3.67,2.82a17.88,17.88,0,0,0,5.73-7.7c2.53.8,4.59-.21,6.44-1.74A6.76,6.76,0,0,0,135,53.85a10.93,10.93,0,0,0,6.88-2,7,7,0,0,0,6.34-.28A22.47,22.47,0,0,0,151,49.93c0,2.27,1.17,4.75,3.82,4.72,1.74,0,3.4-1.25,4.87-2.82a2.15,2.15,0,0,0,2.19-.68,44.38,44.38,0,0,0,3.56-4.39,24.93,24.93,0,0,0,2.29,5.64C169.28,55.21,173.6,52.69,172,49.87Zm-73.91-.29c-1.51,1.12.28-1.4,1.35-2.76A3.76,3.76,0,0,1,98.12,49.58Z"/><path d="M114.86,39.79a46.5,46.5,0,0,0-7.71,2.57,2.51,2.51,0,0,0-.9,3.42,2.56,2.56,0,0,0,3.42.9,40.18,40.18,0,0,1,6.52-2.07C119.33,43.88,118,39.06,114.86,39.79Z"/><path d="M137.54,35a1.8,1.8,0,0,0-.3-.93,2.46,2.46,0,0,0-1.49-1.15,2.5,2.5,0,0,0-1.93.25l-.89.59a2.67,2.67,0,0,0-1.15,1.49,1.89,1.89,0,0,0,0,1,1.85,1.85,0,0,0,.29.93,2.58,2.58,0,0,0,1.5,1.15,2.52,2.52,0,0,0,1.92-.25l.9-.59A2.7,2.7,0,0,0,137.5,36,2,2,0,0,0,137.54,35Z"/></svg>
