<svg id="Layer_1" data-name="Layer 1" xmlns="http://www.w3.org/2000/svg" viewBox="0 0 505 129.2" fill='none' stroke='currentColor'><path strokeLinecap="round" strokeLinejoin="round" strokeWidth='2px' className="cls-1" d="M2.37,4C38.08,4,38.08,24,73.8,24S109.51,4,145.22,4s35.72,20,71.43,20S252.36,4,288.08,4s35.71,20,71.43,20S395.22,4,430.94,4s35.71,20,71.43,20"/><path strokeLinecap="round" strokeLinejoin="round" strokeWidth='2px' className="cls-1" d="M2.5,17.8c35.71,0,35.71,20,71.43,20s35.71-20,71.42-20,35.72,20,71.43,20,35.71-20,71.43-20,35.71,20,71.42,20,35.72-20,71.44-20,35.71,20,71.43,20"/><path strokeLinecap="round" strokeLinejoin="round" strokeWidth='2px' className="cls-1" d="M2.44,31.57c35.71,0,35.71,20,71.42,20s35.72-20,71.43-20,35.71,20,71.42,20,35.72-20,71.43-20,35.72,20,71.43,20,35.72-20,71.43-20,35.72,20,71.44,20"/><path strokeLinecap="round" strokeLinejoin="round" strokeWidth='2px' className="cls-1" d="M2.56,45.35c35.72,0,35.72,20,71.43,20s35.72-20,71.43-20,35.71,20,71.42,20,35.72-20,71.43-20,35.71,20,71.43,20,35.72-20,71.43-20,35.72,20,71.43,20"/><path strokeLinecap="round" strokeLinejoin="round" strokeWidth='2px' className="cls-1" d="M2.37,45.35c35.71,0,35.71,20,71.43,20s35.71-20,71.42-20,35.72,20,71.43,20,35.71-20,71.43-20,35.71,20,71.43,20,35.71-20,71.43-20,35.71,20,71.43,20"/><path strokeLinecap="round" strokeLinejoin="round" strokeWidth='2px' className="cls-1" d="M2.5,59.13c35.71,0,35.71,20,71.43,20s35.71-20,71.42-20,35.72,20,71.43,20,35.71-20,71.43-20,35.71,20,71.42,20,35.72-20,71.44-20,35.71,20,71.43,20"/><path strokeLinecap="round" strokeLinejoin="round" strokeWidth='2px' className="cls-1" d="M2.44,72.91c35.71,0,35.71,20,71.42,20s35.72-20,71.43-20,35.71,20,71.42,20,35.72-20,71.43-20,35.72,20,71.43,20,35.72-20,71.43-20,35.72,20,71.44,20"/><path strokeLinecap="round" strokeLinejoin="round" strokeWidth='2px' className="cls-1" d="M2.56,86.69c35.72,0,35.72,20,71.43,20s35.72-20,71.43-20,35.71,20,71.42,20,35.72-20,71.43-20,35.71,20,71.43,20,35.72-20,71.43-20,35.72,20,71.43,20"/><path strokeLinecap="round" strokeLinejoin="round" strokeWidth='2px' className="cls-1" d="M2.37,100.46c35.71,0,35.71,20,71.43,20s35.71-20,71.42-20,35.72,20,71.43,20,35.71-20,71.43-20,35.71,20,71.43,20,35.71-20,71.43-20,35.71,20,71.43,20"/></svg>
