<svg xmlns="http://www.w3.org/2000/svg" viewBox="0 0 160.33 160" fill="currentColor"><rect class="cls-1" x="72.33" width="4" height="4" rx="0.44"/><rect class="cls-1" x="84.33" width="4" height="4" rx="0.44"/><rect class="cls-1" x="96.33" width="4" height="4" rx="0.44"/><rect class="cls-1" x="108.33" width="4" height="4" rx="0.44"/><rect class="cls-1" x="120.33" width="4" height="4" rx="0.44"/><rect class="cls-1" x="132.33" width="4" height="4" rx="0.44"/><rect class="cls-1" x="144.33" width="4" height="4" rx="0.44"/><rect class="cls-1" x="156.33" width="4" height="4" rx="0.44"/><rect class="cls-1" x="72.33" y="12" width="4" height="4" rx="0.44"/><rect class="cls-1" x="72.33" y="24" width="4" height="4" rx="0.44"/><rect class="cls-1" x="72.33" y="36" width="4" height="4" rx="0.44"/><rect class="cls-1" x="72.33" y="48" width="4" height="4" rx="0.44"/><rect class="cls-1" x="72.33" y="60" width="4" height="4" rx="0.44"/><rect class="cls-1" x="72.33" y="72" width="4" height="4" rx="0.44"/><rect class="cls-1" x="84.33" y="12" width="4" height="4" rx="0.44"/><rect class="cls-1" x="96.33" y="12" width="4" height="4" rx="0.44"/><rect class="cls-1" x="108.33" y="12" width="4" height="4" rx="0.44"/><rect class="cls-1" x="120.33" y="12" width="4" height="4" rx="0.44"/><rect class="cls-1" x="132.33" y="12" width="4" height="4" rx="0.44"/><rect class="cls-1" x="144.33" y="12" width="4" height="4" rx="0.44"/><rect class="cls-1" x="156.33" y="12" width="4" height="4" rx="0.44"/><rect class="cls-1" x="84.33" y="24" width="4" height="4" rx="0.44"/><rect class="cls-1" x="96.33" y="24" width="4" height="4" rx="0.44"/><rect class="cls-1" x="108.33" y="24" width="4" height="4" rx="0.44"/><rect class="cls-1" x="120.33" y="24" width="4" height="4" rx="0.44"/><rect class="cls-1" x="132.33" y="24" width="4" height="4" rx="0.44"/><rect class="cls-1" x="144.33" y="24" width="4" height="4" rx="0.44"/><rect class="cls-1" x="156.33" y="24" width="4" height="4" rx="0.44"/><rect class="cls-1" x="84.33" y="36" width="4" height="4" rx="0.44"/><rect class="cls-1" x="84.33" y="48" width="4" height="4" rx="0.44"/><rect class="cls-1" x="84.33" y="60" width="4" height="4" rx="0.44"/><rect class="cls-1" x="84.33" y="72" width="4" height="4" rx="0.44"/><rect class="cls-1" x="48.33" width="4" height="4" rx="0.44"/><rect class="cls-1" x="60.33" width="4" height="4" rx="0.44"/><rect class="cls-1" x="48.33" y="12" width="4" height="4" rx="0.44"/><rect class="cls-1" x="48.33" y="24" width="4" height="4" rx="0.44"/><rect class="cls-1" x="48.33" y="36" width="4" height="4" rx="0.44"/><rect class="cls-1" x="48.33" y="48" width="4" height="4" rx="0.44"/><rect class="cls-1" x="60.33" y="12" width="4" height="4" rx="0.44"/><rect class="cls-1" x="60.33" y="24" width="4" height="4" rx="0.44"/><rect class="cls-1" x="60.33" y="36" width="4" height="4" rx="0.44"/><rect class="cls-1" x="60.33" y="48" width="4" height="4" rx="0.44"/><rect class="cls-1" x="60.33" y="60" width="4" height="4" rx="0.44"/><rect class="cls-1" x="24.33" width="4" height="4" rx="0.44"/><rect class="cls-1" x="36.33" width="4" height="4" rx="0.44"/><rect class="cls-1" x="24.33" y="12" width="4" height="4" rx="0.44"/><rect class="cls-1" x="24.33" y="24" width="4" height="4" rx="0.44"/><rect class="cls-1" x="36.33" y="12" width="4" height="4" rx="0.44"/><rect class="cls-1" x="36.33" y="24" width="4" height="4" rx="0.44"/><rect class="cls-1" x="36.33" y="36" width="4" height="4" rx="0.44"/><rect class="cls-1" x="0.33" width="4" height="4" rx="0.44"/><rect class="cls-1" x="12.33" width="4" height="4" rx="0.44"/><rect class="cls-1" x="12.33" y="12" width="4" height="4" rx="0.44"/><rect class="cls-1" x="84.33" y="84" width="4" height="4" rx="0.44"/><rect class="cls-1" x="96.33" y="36" width="4" height="4" rx="0.44"/><rect class="cls-1" x="108.33" y="36" width="4" height="4" rx="0.44"/><rect class="cls-1" x="120.33" y="36" width="4" height="4" rx="0.44"/><rect class="cls-1" x="132.33" y="36" width="4" height="4" rx="0.44"/><rect class="cls-1" x="144.33" y="36" width="4" height="4" rx="0.44"/><rect class="cls-1" x="156.33" y="36" width="4" height="4" rx="0.44"/><rect class="cls-1" x="96.33" y="48" width="4" height="4" rx="0.44"/><rect class="cls-1" x="108.33" y="48" width="4" height="4" rx="0.44"/><rect class="cls-1" x="120.33" y="48" width="4" height="4" rx="0.44"/><rect class="cls-1" x="132.33" y="48" width="4" height="4" rx="0.44"/><rect class="cls-1" x="144.33" y="48" width="4" height="4" rx="0.44"/><rect class="cls-1" x="156.33" y="48" width="4" height="4" rx="0.44"/><rect class="cls-1" x="96.33" y="60" width="4" height="4" rx="0.44"/><rect class="cls-1" x="96.33" y="72" width="4" height="4" rx="0.44"/><rect class="cls-1" x="96.33" y="84" width="4" height="4" rx="0.44"/><rect class="cls-1" x="96.33" y="96" width="4" height="4" rx="0.44"/><rect class="cls-1" x="108.33" y="60" width="4" height="4" rx="0.44"/><rect class="cls-1" x="120.33" y="60" width="4" height="4" rx="0.44"/><rect class="cls-1" x="132.33" y="60" width="4" height="4" rx="0.44"/><rect class="cls-1" x="144.33" y="60" width="4" height="4" rx="0.44"/><rect class="cls-1" x="156.33" y="60" width="4" height="4" rx="0.44"/><rect class="cls-1" x="108.33" y="72" width="4" height="4" rx="0.44"/><rect class="cls-1" x="108.33" y="84" width="4" height="4" rx="0.44"/><rect class="cls-1" x="108.33" y="96" width="4" height="4" rx="0.44"/><rect class="cls-1" x="108.33" y="108" width="4" height="4" rx="0.44"/><rect class="cls-1" x="120.33" y="72" width="4" height="4" rx="0.44"/><rect class="cls-1" x="132.33" y="72" width="4" height="4" rx="0.44"/><rect class="cls-1" x="144.33" y="72" width="4" height="4" rx="0.44"/><rect class="cls-1" x="156.33" y="72" width="4" height="4" rx="0.44"/><rect class="cls-1" x="120.33" y="84" width="4" height="4" rx="0.44"/><rect class="cls-1" x="132.33" y="84" width="4" height="4" rx="0.44"/><rect class="cls-1" x="144.33" y="84" width="4" height="4" rx="0.44"/><rect class="cls-1" x="156.33" y="84" width="4" height="4" rx="0.44"/><rect class="cls-1" x="120.33" y="96" width="4" height="4" rx="0.44"/><rect class="cls-1" x="132.33" y="96" width="4" height="4" rx="0.44"/><rect class="cls-1" x="144.33" y="96" width="4" height="4" rx="0.44"/><rect class="cls-1" x="156.33" y="96" width="4" height="4" rx="0.44"/><rect class="cls-1" x="120.33" y="108" width="4" height="4" rx="0.44"/><rect class="cls-1" x="120.33" y="120" width="4" height="4" rx="0.44"/><rect class="cls-1" x="132.33" y="108" width="4" height="4" rx="0.44"/><rect class="cls-1" x="144.33" y="108" width="4" height="4" rx="0.44"/><rect class="cls-1" x="156.33" y="108" width="4" height="4" rx="0.44"/><rect class="cls-1" x="132.33" y="120" width="4" height="4" rx="0.44"/><rect class="cls-1" x="132.33" y="132" width="4" height="4" rx="0.44"/><rect class="cls-1" x="144.33" y="120" width="4" height="4" rx="0.44"/><rect class="cls-1" x="156.33" y="120" width="4" height="4" rx="0.44"/><rect class="cls-1" x="144.33" y="132" width="4" height="4" rx="0.44"/><rect class="cls-1" x="156.33" y="132" width="4" height="4" rx="0.44"/><rect class="cls-1" x="144.33" y="144" width="4" height="4" rx="0.44"/><rect class="cls-1" x="156.33" y="144" width="4" height="4" rx="0.44"/><rect class="cls-1" x="156.33" y="156" width="4" height="4" rx="0.44"/></svg>
